<svg width="32" height="32" viewBox="0 0 32 32" fill="none" xmlns="http://www.w3.org/2000/svg">
<rect width="32" height="32" rx="16" fill="#0057FF"/>
<path d="M12.4406 10.6522C12.8988 10.6428 13.3563 10.6941 13.8011 10.8048C14.2153 10.879 14.5554 11.0316 14.8607 11.2191C15.1632 11.4079 15.4006 11.6849 15.5409 12.0127C15.6988 12.3955 15.776 12.8067 15.7677 13.2206C15.7677 13.7439 15.6543 14.2017 15.3883 14.5419C15.1616 14.882 14.7778 15.1829 14.3287 15.414C14.9078 15.5613 15.416 15.9089 15.7633 16.3951C16.0686 16.8486 16.2561 17.4155 16.2561 18.0522C16.2636 18.523 16.1606 18.9889 15.9552 19.4127C15.7631 19.7928 15.4781 20.1183 15.1267 20.3589C14.7581 20.6032 14.3491 20.7803 13.9188 20.8822C13.4742 20.9979 13.0176 21.0609 12.5583 21.0697H7.5V10.6522H12.4406ZM12.1353 14.882C12.5496 14.882 12.8897 14.7686 13.1557 14.5768C13.4217 14.3849 13.5351 14.0535 13.5351 13.6305C13.5415 13.4226 13.5028 13.2159 13.4217 13.0244C13.3476 12.8718 13.2342 12.7628 13.0816 12.645C12.9289 12.5709 12.7763 12.4924 12.5888 12.4575C12.4013 12.4226 12.2094 12.4139 11.9783 12.4139H9.79803V14.8689L12.1353 14.882ZM12.2443 19.3516C12.4599 19.3475 12.6745 19.3227 12.8853 19.2775C13.0725 19.2404 13.2497 19.1641 13.4053 19.0536C13.5609 18.9431 13.6913 18.801 13.788 18.6365C13.8621 18.449 13.9406 18.2222 13.9406 17.9562C13.9406 17.4329 13.788 17.0492 13.4871 16.7789C13.1819 16.5521 12.7676 16.4387 12.2792 16.4387H9.79367V19.3472L12.2443 19.3516ZM19.5396 19.308C19.8448 19.6132 20.294 19.7615 20.9001 19.7615C21.2853 19.7665 21.6637 19.6606 21.9903 19.4563C22.2441 19.2926 22.4419 19.0552 22.5571 18.776H24.4104C24.1051 19.683 23.656 20.324 23.0499 20.7383C22.4394 21.1177 21.7286 21.3488 20.8565 21.3488C20.3003 21.3511 19.7486 21.249 19.23 21.0479C18.7648 20.8742 18.3498 20.588 18.0221 20.215C17.6693 19.8697 17.4098 19.4406 17.2677 18.9679C17.0785 18.447 16.9883 17.8954 17.0017 17.3414C17.0017 16.7745 17.0759 16.2512 17.2634 15.7541C17.444 15.2789 17.7133 14.8424 18.057 14.4677C18.4023 14.115 18.8124 13.8322 19.2649 13.6349C19.7697 13.4331 20.3085 13.3295 20.8521 13.3296C21.4931 13.3296 22.06 13.443 22.5528 13.709C23.0455 13.975 23.4249 14.2759 23.7301 14.7294C24.0387 15.1643 24.2689 15.6498 24.4104 16.164C24.4845 16.6873 24.5238 17.2236 24.4845 17.821H19.0163C19.0025 18.3601 19.1889 18.8852 19.5396 19.2949V19.308ZM21.9205 15.3399C21.6589 15.0782 21.2402 14.9256 20.7431 14.9256C20.403 14.9256 20.1326 14.9997 19.9146 15.1131C19.6966 15.2265 19.5352 15.3747 19.3913 15.5274C19.2562 15.6734 19.1654 15.8549 19.1297 16.0506C19.0948 16.2338 19.0556 16.3908 19.0556 16.5434H22.4568C22.4199 16.0938 22.2281 15.6698 21.9205 15.3399ZM18.6064 11.3717H22.8362V12.3921H18.6064V11.3717Z" fill="white"/>
</svg>
