<svg width="32" height="32" viewBox="0 0 32 32" fill="none" xmlns="http://www.w3.org/2000/svg">
<rect width="32" height="32" rx="16" fill="#0057FF"/>
<path d="M11.3937 9.00144C11.9867 8.98909 12.5787 9.05625 13.1543 9.20117C13.6904 9.29819 14.1306 9.49792 14.5256 9.74331C14.9171 9.99037 15.2244 10.3529 15.4059 10.7819C15.6102 11.2828 15.7101 11.821 15.6994 12.3627C15.6994 13.0475 15.5526 13.6467 15.2084 14.0918C14.915 14.5369 14.4184 14.9307 13.8371 15.2331C14.5866 15.4259 15.2443 15.8808 15.6937 16.5172C16.0887 17.1106 16.3314 17.8525 16.3314 18.6857C16.3412 19.3018 16.2078 19.9117 15.942 20.4662C15.6934 20.9637 15.3246 21.3896 14.8698 21.7045C14.3928 22.0242 13.8636 22.2561 13.3067 22.3893C12.7314 22.5408 12.1404 22.6232 11.546 22.6347H5V9.00144H11.3937ZM10.9986 14.5369C11.5347 14.5369 11.9749 14.3886 12.3191 14.1375C12.6634 13.8864 12.8101 13.4527 12.8101 12.8991C12.8184 12.6271 12.7684 12.3565 12.6634 12.1059C12.5674 11.9061 12.4207 11.7635 12.2232 11.6094C12.0257 11.5124 11.8282 11.4097 11.5855 11.364C11.3429 11.3184 11.0946 11.3069 10.7955 11.3069H7.97393V14.5198L10.9986 14.5369ZM11.1397 20.3863C11.4187 20.381 11.6965 20.3485 11.9693 20.2893C12.2115 20.2407 12.4408 20.1409 12.6421 19.9963C12.8435 19.8517 13.0123 19.6657 13.1374 19.4504C13.2333 19.205 13.3349 18.9083 13.3349 18.5601C13.3349 17.8753 13.1374 17.3732 12.748 17.0193C12.353 16.7226 11.8169 16.5742 11.1849 16.5742H7.96828V20.3806L11.1397 20.3863ZM20.5807 20.3292C20.9757 20.7287 21.5569 20.9227 22.3413 20.9227C22.8398 20.9293 23.3295 20.7906 23.7521 20.5232C24.0806 20.309 24.3366 19.9984 24.4857 19.633H26.884C26.489 20.82 25.9078 21.6589 25.1234 22.201C24.3333 22.6975 23.4135 23 22.2849 23C21.5651 23.0029 20.8511 22.8694 20.18 22.6062C19.578 22.3789 19.041 22.0044 18.6169 21.5162C18.1603 21.0643 17.8244 20.5028 17.6406 19.8841C17.3957 19.2024 17.279 18.4805 17.2964 17.7555C17.2964 17.0136 17.3923 16.3288 17.635 15.6783C17.8687 15.0564 18.2173 14.4851 18.662 13.9948C19.1089 13.5332 19.6396 13.1631 20.2251 12.9048C20.8785 12.6407 21.5756 12.5052 22.2792 12.5053C23.1088 12.5053 23.8424 12.6537 24.4801 13.0018C25.1177 13.3499 25.6087 13.7437 26.0037 14.3372C26.403 14.9064 26.7009 15.5418 26.884 16.2147C26.98 16.8995 27.0308 17.6014 26.98 18.3832H19.9035C19.8856 19.0888 20.1268 19.776 20.5807 20.3121V20.3292ZM23.6618 15.1361C23.3232 14.7937 22.7815 14.594 22.1382 14.594C21.698 14.594 21.3481 14.691 21.066 14.8394C20.7838 14.9878 20.575 15.1818 20.3888 15.3815C20.2139 15.5726 20.0964 15.8101 20.0502 16.0663C20.0051 16.306 19.9543 16.5114 19.9543 16.7112H24.3559C24.3081 16.1228 24.0599 15.5679 23.6618 15.1361ZM19.373 9.94304H24.8469V11.2784H19.373V9.94304Z" fill="white"/>
</svg>
