<svg width="32" height="32" viewBox="0 0 32 32" fill="none" xmlns="http://www.w3.org/2000/svg">
<rect width="32" height="32" rx="16" fill="white"/>
<g clip-path="url(#clip0_280_2)">
<path d="M7.5 14.8914C7.5 14.7101 7.53612 14.5288 7.60837 14.3545C7.77342 13.9579 8.21329 13.6136 9.09233 12.9251L13.4883 9.48544C14.3673 8.79694 14.8072 8.45269 15.3136 8.32377C15.7599 8.21044 16.2401 8.21044 16.6864 8.32377C17.1928 8.45339 17.6327 8.79694 18.5117 9.48544L22.9077 12.9251C23.7867 13.6136 24.2266 13.9579 24.3916 14.3545C24.4639 14.5288 24.5 14.7101 24.5 14.8914V17.1085C24.5 17.2899 24.4639 17.4712 24.3916 17.6454C24.2266 18.0421 23.7867 18.3864 22.9077 19.0741L18.5117 22.5145C17.6327 23.203 17.1928 23.5466 16.6864 23.6762C16.2401 23.7895 15.7599 23.7895 15.3136 23.6762C14.8072 23.5466 14.3673 23.203 13.4883 22.5145L9.09233 19.0741C8.21329 18.3871 7.77342 18.0421 7.60837 17.6454C7.53715 17.4754 7.50032 17.2929 7.5 17.1085V14.8914ZM14.1158 12.5979L14.7441 13.0894C15.1833 13.433 15.4029 13.6051 15.6572 13.6703C15.8803 13.7269 16.1197 13.7269 16.3428 13.6703C16.5964 13.6051 16.816 13.433 17.2566 13.0894L17.8842 12.5979C18.3233 12.2536 18.5429 12.0815 18.6258 11.8831C18.6616 11.7982 18.6801 11.7069 18.6801 11.6147C18.6801 11.5225 18.6616 11.4312 18.6258 11.3462C18.5436 11.1479 18.3233 10.9758 17.8842 10.6322L17.2559 10.1406C16.8167 9.79639 16.5971 9.62427 16.3428 9.55981C16.1178 9.5032 15.8822 9.5032 15.6572 9.55981C15.4036 9.62427 15.184 9.79639 14.7434 10.1406L14.1158 10.6322C13.6767 10.9758 13.4571 11.1479 13.3742 11.3462C13.3384 11.4312 13.3199 11.5225 13.3199 11.6147C13.3199 11.7069 13.3384 11.7982 13.3742 11.8831C13.4564 12.0815 13.6767 12.2536 14.1158 12.5979ZM18.3021 15.8739L18.9304 16.3655C19.3695 16.7097 19.5898 16.8819 19.8441 16.9463C20.0665 17.003 20.3067 17.003 20.5298 16.9463C20.7834 16.8819 21.003 16.7097 21.4421 16.3655L22.0704 15.8739C22.5096 15.5304 22.7299 15.3582 22.812 15.1599C22.8478 15.0749 22.8663 14.9836 22.8663 14.8914C22.8663 14.7992 22.8478 14.7079 22.812 14.623C22.7299 14.4246 22.5103 14.2525 22.0704 13.9083L21.4421 13.4167C21.003 13.0731 20.7834 12.901 20.5298 12.8359C20.3045 12.7791 20.0687 12.7791 19.8434 12.8359C19.5898 12.901 19.3702 13.0731 18.9304 13.4167L18.3028 13.9083C17.8629 14.2525 17.6433 14.4246 17.5612 14.623C17.5253 14.7079 17.5069 14.7992 17.5069 14.8914C17.5069 14.9837 17.5253 15.0749 17.5612 15.1599C17.6433 15.3582 17.8629 15.5304 18.3028 15.8739H18.3021ZM9.92958 15.8739L14.7441 19.6422C15.1833 19.9865 15.4029 20.1579 15.6572 20.2231C15.8803 20.2797 16.1197 20.2797 16.3428 20.2231C16.5964 20.1579 16.816 19.9865 17.2566 19.6422L17.8842 19.1506C18.3233 18.8064 18.5429 18.6343 18.6258 18.4359C18.6617 18.351 18.6802 18.2597 18.6802 18.1675C18.6802 18.0753 18.6617 17.984 18.6258 17.899C18.5436 17.7007 18.3233 17.5286 17.8842 17.185L13.0696 13.4167C12.6305 13.0731 12.4102 12.901 12.1559 12.8359C11.9308 12.7792 11.6953 12.7792 11.4702 12.8359C11.2166 12.901 10.997 13.0731 10.5579 13.4167L9.92958 13.9083C9.49042 14.2525 9.27012 14.4246 9.18796 14.623C9.15211 14.7079 9.13365 14.7992 9.13365 14.8914C9.13365 14.9837 9.15211 15.0749 9.18796 15.1599C9.27012 15.3582 9.48971 15.5304 9.92958 15.8739Z" fill="black"/>
</g>
<defs>
<clipPath id="clip0_280_2">
<rect width="17" height="17" fill="white" transform="translate(7.5 7.5)"/>
</clipPath>
</defs>
</svg>
