<svg width="32" height="32" viewBox="0 0 32 32" fill="none" xmlns="http://www.w3.org/2000/svg">
<rect width="32" height="32" rx="16" fill="#5865F2"/>
<path d="M21.9132 10.6174C23.8331 13.4403 24.7813 16.6244 24.4268 20.29C24.4253 20.3055 24.4172 20.3197 24.4045 20.3291C22.9506 21.3967 21.5419 22.0446 20.153 22.4743C20.1422 22.4776 20.1306 22.4774 20.1199 22.4738C20.1092 22.4701 20.0999 22.4633 20.0933 22.4541C19.7724 22.0076 19.4809 21.5369 19.2255 21.0427C19.2108 21.0136 19.2242 20.9785 19.2544 20.967C19.7174 20.7926 20.1577 20.5835 20.5812 20.3359C20.6146 20.3163 20.6167 20.2685 20.5859 20.2456C20.496 20.1789 20.407 20.1087 20.3217 20.0386C20.3058 20.0256 20.2843 20.0231 20.2663 20.0318C17.5167 21.3015 14.5048 21.3015 11.7227 20.0318C11.7047 20.0237 11.6832 20.0265 11.6677 20.0392C11.5827 20.1094 11.4934 20.1789 11.4044 20.2456C11.3736 20.2685 11.3761 20.3163 11.4097 20.3359C11.8332 20.5788 12.2735 20.7926 12.7359 20.9679C12.7659 20.9793 12.7801 21.0136 12.7653 21.0427C12.5154 21.5376 12.2238 22.0083 11.897 22.4547C11.8827 22.4728 11.8594 22.4811 11.8373 22.4743C10.455 22.0446 9.0463 21.3967 7.59237 20.3291C7.58026 20.3197 7.57155 20.3049 7.57027 20.2894C7.27405 17.1186 7.87776 13.9082 10.0816 10.6168C10.0869 10.6081 10.095 10.6013 10.1043 10.5972C11.1887 10.0996 12.3505 9.73343 13.5647 9.52433C13.5868 9.52093 13.6089 9.53113 13.6204 9.55068C13.7704 9.81631 13.9419 10.1569 14.0579 10.4353C15.3378 10.2398 16.6376 10.2398 17.9443 10.4353C18.0603 10.1629 18.2259 9.81631 18.3752 9.55068C18.3806 9.54098 18.3888 9.53321 18.3988 9.52848C18.4088 9.52375 18.42 9.5223 18.4309 9.52433C19.6458 9.73407 20.8075 10.1002 21.891 10.5972C21.9006 10.6013 21.9085 10.6081 21.9132 10.6174ZM14.7086 16.646C14.722 15.7087 14.0386 14.9331 13.1807 14.9331C12.3298 14.9331 11.653 15.7019 11.653 16.646C11.653 17.59 12.3432 18.3588 13.1807 18.3588C14.0318 18.3588 14.7086 17.59 14.7086 16.646ZM20.3572 16.646C20.3706 15.7087 19.6872 14.9331 18.8296 14.9331C17.9785 14.9331 17.3017 15.7019 17.3017 16.646C17.3017 17.59 17.9919 18.3588 18.8296 18.3588C19.6872 18.3588 20.3572 17.59 20.3572 16.646Z" fill="white"/>
</svg>
