<svg width="32" height="32" viewBox="0 0 32 32" fill="none" xmlns="http://www.w3.org/2000/svg">
<rect width="32" height="32" rx="16" fill="white"/>
<path fill-rule="evenodd" clip-rule="evenodd" d="M16 7.70935C11.3052 7.70935 7.5 11.5146 7.5 16.2094C7.5 19.9633 9.93589 23.1491 13.3126 24.2762C13.7364 24.3554 13.8948 24.0899 13.8948 23.8663C13.8948 23.6614 13.8855 22.9954 13.8855 22.2828C11.5195 22.7951 11.0211 21.2814 11.0211 21.2814C10.6345 20.2987 10.0756 20.0378 10.0756 20.0378C9.30247 19.5115 10.1315 19.5209 10.1315 19.5209C10.9838 19.5814 11.4356 20.3965 11.4356 20.3965C12.1948 21.6959 13.4244 21.3187 13.9088 21.1044C13.9833 20.5548 14.2068 20.1822 14.449 19.968C12.5627 19.7537 10.574 19.0225 10.574 15.7669C10.574 14.84 10.9047 14.0809 11.4496 13.4847C11.3611 13.2704 11.0723 12.4041 11.5334 11.2351C11.5334 11.2351 12.246 11.0069 13.8715 12.1061C14.5515 11.9198 15.2781 11.822 16 11.822C16.7219 11.8266 17.4485 11.9198 18.1285 12.1061C19.7493 11.0069 20.4619 11.2351 20.4619 11.2351C20.923 12.4041 20.6342 13.2704 20.5458 13.4847C21.0907 14.0809 21.4214 14.84 21.4214 15.7669C21.4214 19.0318 19.4326 19.7491 17.5416 19.9587C17.8444 20.2241 18.1192 20.7411 18.1192 21.5329C18.1192 22.6693 18.1099 23.5869 18.1099 23.8663C18.1099 24.0946 18.2636 24.3554 18.6921 24.2762C22.0688 23.1491 24.5 19.968 24.5 16.2094C24.5 11.5146 20.6948 7.70935 16 7.70935Z" fill="#181616"/>
</svg>
