<svg width="32" height="32" viewBox="0 0 32 32" fill="none" xmlns="http://www.w3.org/2000/svg">
<rect width="32" height="32" rx="16" fill="white"/>
<path fill-rule="evenodd" clip-rule="evenodd" d="M16 5.5C9.92438 5.5 5 10.3192 5 16.2651C5 21.0195 8.15233 25.0542 12.5222 26.4817C13.0707 26.5819 13.2756 26.2457 13.2756 25.9626C13.2756 25.703 13.2636 24.8595 13.2636 23.957C10.2016 24.6059 9.55671 22.6888 9.55671 22.6888C9.05644 21.4442 8.33315 21.1138 8.33315 21.1138C7.3326 20.4473 8.40548 20.4591 8.40548 20.4591C9.50849 20.5358 10.0932 21.568 10.0932 21.568C11.0756 23.2138 12.6668 22.736 13.2937 22.4646C13.3901 21.7686 13.6795 21.2967 13.9929 21.0254C11.5518 20.754 8.97808 19.8279 8.97808 15.7047C8.97808 14.5309 9.40603 13.5694 10.1112 12.8144C9.99671 12.543 9.62301 11.4459 10.2197 9.96531C10.2197 9.96531 11.1419 9.67628 13.2455 11.0684C14.1255 10.8324 15.0658 10.7085 16 10.7085C16.9342 10.7144 17.8745 10.8324 18.7545 11.0684C20.8521 9.67628 21.7742 9.96531 21.7742 9.96531C22.371 11.4459 21.9973 12.543 21.8827 12.8144C22.5879 13.5694 23.0159 14.5309 23.0159 15.7047C23.0159 19.8397 20.4422 20.7481 17.9951 21.0136C18.3868 21.3498 18.7425 22.0045 18.7425 23.0073C18.7425 24.4466 18.7304 25.6086 18.7304 25.9626C18.7304 26.2516 18.9293 26.5819 19.4838 26.4817C23.8537 25.0542 27 21.0254 27 16.2651C27 10.3192 22.0756 5.5 16 5.5Z" fill="#181616"/>
</svg>
