<svg width="32" height="32" viewBox="0 0 32 32" fill="none" xmlns="http://www.w3.org/2000/svg">
<rect width="32" height="32" rx="16" fill="white"/>
<g clip-path="url(#clip0_343_9)">
<path d="M16.0079 11.4141C15.8497 11.4141 15.6931 11.4222 15.5388 11.438C15.3846 11.4538 15.2325 11.4772 15.0829 11.5079C14.9334 11.5387 14.7865 11.5767 14.6426 11.6217L14.2202 11.7768L13.8179 11.971L13.4384 12.2019L13.0838 12.4672L12.7565 12.7645L12.459 13.0914L12.1934 13.4457L11.9622 13.8249L11.7678 14.2266C11.7094 14.364 11.6575 14.5049 11.6125 14.6487C11.5675 14.7925 11.5295 14.9394 11.4987 15.0887C11.4679 15.2381 11.4445 15.39 11.4286 15.5441C11.4127 15.6983 11.4048 15.8547 11.4048 16.0128C11.4048 16.1709 11.4129 16.3273 11.4286 16.4814C11.4443 16.6343 11.4676 16.7864 11.4987 16.9369C11.5295 17.0869 11.5675 17.2331 11.6125 17.3769C11.6575 17.5207 11.7094 17.6615 11.7678 17.799L11.9622 18.2008L12.1934 18.5799L12.459 18.9342L12.7565 19.2612L13.0838 19.5584L13.4384 19.8237L13.8179 20.0546L14.2202 20.2489L14.6426 20.404L15.0829 20.5177C15.2336 20.5487 15.3858 20.5721 15.5388 20.5877C15.6947 20.6036 15.8513 20.6115 16.0079 20.6115C16.1662 20.6115 16.3228 20.6034 16.477 20.5877C16.63 20.5721 16.7822 20.5487 16.9329 20.5177L17.3733 20.404L17.7957 20.2489L18.1979 20.0546L18.5775 19.8237L18.9321 19.5584L19.2594 19.2612L19.557 18.9342L19.8225 18.5799L20.0538 18.2008L20.2481 17.799L20.4035 17.3769C20.4484 17.2331 20.4865 17.0863 20.5173 16.9369L20.5874 16.4814C20.6032 16.3272 20.6112 16.1708 20.6112 16.0127C20.6112 15.8546 20.6032 15.6982 20.5874 15.5441C20.5717 15.3912 20.5483 15.2392 20.5173 15.0886C20.4865 14.9387 20.4484 14.7925 20.4035 14.6487L20.2481 14.2266L20.0538 13.8248L19.8225 13.4456L19.557 13.0914L19.2594 12.7644L18.9321 12.4671L18.5775 12.2019L18.1979 11.9709L17.7957 11.7767L17.3733 11.6216L16.9329 11.5079L16.477 11.4379C16.3212 11.422 16.1646 11.4141 16.0079 11.4141V11.4141ZM16.0079 13.0014C16.1126 13.0014 16.2159 13.0066 16.3176 13.0169L16.6175 13.0622L16.9071 13.1361L17.1845 13.2368L17.4482 13.3631L17.6961 13.5133L17.928 13.6861L18.1417 13.88L18.3357 14.0935L18.5087 14.325L18.6591 14.5734L18.7854 14.8369C18.8233 14.9271 18.857 15.0195 18.8863 15.114C18.9156 15.2085 18.9402 15.3051 18.9601 15.4035C18.98 15.5019 18.9947 15.602 19.0055 15.7036L19.0209 16.0131C19.0209 16.1176 19.0158 16.2208 19.0055 16.3226C18.9952 16.4243 18.9801 16.5244 18.9601 16.6227C18.9401 16.721 18.9154 16.8176 18.8863 16.9122L18.7854 17.1893L18.6591 17.4529L18.5087 17.7011L18.3357 17.9327L18.1417 18.1462L17.928 18.3401L17.6961 18.5129L17.4482 18.6631L17.1845 18.7894L16.9071 18.8902L16.6175 18.964L16.3176 19.0093C16.2147 19.0196 16.1113 19.0248 16.0079 19.0247C15.9044 19.0248 15.8011 19.0196 15.6981 19.0093L15.3983 18.964C15.2998 18.944 15.2032 18.9193 15.1085 18.8902L14.8312 18.7894L14.5675 18.6631L14.3195 18.5129L14.0877 18.3401L13.874 18.1462L13.68 17.9327L13.507 17.7011L13.3566 17.4529L13.2303 17.1893L13.1294 16.9122L13.0556 16.6227L13.0102 16.3226C12.9999 16.2197 12.9947 16.1164 12.9947 16.0131C12.9947 15.9097 12.9999 15.8065 13.0102 15.7036C13.0204 15.602 13.0356 15.5018 13.0556 15.4035C13.0754 15.3059 13.1 15.2093 13.1294 15.1141L13.2303 14.8369L13.3566 14.5734L13.507 14.3251L13.68 14.0935L13.8741 13.88L14.0878 13.6862L14.3196 13.5134L14.5675 13.3631L14.8312 13.2369C14.922 13.1987 15.0146 13.1651 15.1087 13.1361L15.3984 13.0623C15.4968 13.0423 15.597 13.0271 15.6982 13.0169C15.8012 13.0066 15.9046 13.0014 16.008 13.0015L16.0079 13.0014Z" fill="url(#paint0_radial_343_9)"/>
<path d="M20.7979 10.106C20.7613 10.106 20.7248 10.1078 20.6884 10.1115C20.6521 10.1152 20.6159 10.1207 20.5801 10.128C20.5443 10.1353 20.5088 10.1444 20.4739 10.1553C20.439 10.1661 20.4046 10.1788 20.371 10.1931C20.3373 10.2074 20.3044 10.2235 20.2723 10.2411C20.2402 10.2587 20.2091 10.278 20.1789 10.2987C20.1487 10.3195 20.1196 10.3418 20.0916 10.3655C20.0637 10.3892 20.037 10.4143 20.0115 10.4406C19.986 10.467 19.9619 10.4947 19.9392 10.5235C19.9165 10.5523 19.8952 10.5823 19.8755 10.6132C19.8557 10.6442 19.8375 10.6761 19.821 10.7088C19.8044 10.7416 19.7894 10.7752 19.7762 10.8095C19.7629 10.8438 19.7514 10.8787 19.7416 10.9142C19.7318 10.9496 19.7238 10.9855 19.7176 11.0218C19.7114 11.058 19.707 11.0946 19.7044 11.1312C19.7026 11.1572 19.7017 11.1833 19.7017 11.2093C19.7017 11.2461 19.7035 11.2829 19.7071 11.3195C19.7108 11.3561 19.7163 11.3925 19.7235 11.4286C19.7308 11.4646 19.7398 11.5003 19.7506 11.5354C19.7614 11.5706 19.774 11.6051 19.7882 11.639C19.8025 11.6729 19.8184 11.7061 19.8359 11.7384C19.8534 11.7707 19.8725 11.8021 19.8932 11.8324C19.9138 11.8628 19.9359 11.8921 19.9595 11.9202C19.983 11.9484 20.0079 11.9753 20.0342 12.0009C20.0604 12.0266 20.0879 12.0509 20.1165 12.0737C20.1451 12.0966 20.1749 12.118 20.2057 12.1379C20.2364 12.1578 20.2682 12.1761 20.3007 12.1928C20.3333 12.2095 20.3667 12.2245 20.4007 12.2379C20.4348 12.2512 20.4695 12.2628 20.5047 12.2727C20.5399 12.2825 20.5756 12.2905 20.6116 12.2968C20.6476 12.303 20.6839 12.3075 20.7204 12.3101C20.7462 12.3119 20.7721 12.3129 20.7979 12.3129C20.8345 12.3129 20.871 12.311 20.9074 12.3074C20.9437 12.3037 20.9799 12.2982 21.0157 12.2909C21.0515 12.2836 21.087 12.2745 21.1219 12.2636C21.1568 12.2527 21.1912 12.2401 21.2248 12.2258C21.2585 12.2115 21.2914 12.1954 21.3235 12.1778C21.3556 12.1602 21.3867 12.1409 21.4169 12.1201C21.4471 12.0994 21.4762 12.0771 21.5042 12.0534C21.5321 12.0297 21.5588 12.0046 21.5843 11.9782C21.6098 11.9518 21.6339 11.9242 21.6566 11.8954C21.6793 11.8665 21.7006 11.8366 21.7203 11.8056C21.7401 11.7747 21.7583 11.7427 21.7748 11.71C21.7914 11.6772 21.8064 11.6436 21.8196 11.6093C21.8329 11.575 21.8444 11.5401 21.8542 11.5046C21.864 11.4692 21.872 11.4333 21.8782 11.397C21.8844 11.3608 21.8888 11.3243 21.8914 11.2876C21.8932 11.2616 21.8941 11.2355 21.8941 11.2095C21.8941 11.1727 21.8923 11.136 21.8887 11.0994C21.885 11.0628 21.8795 11.0264 21.8723 10.9903C21.865 10.9543 21.856 10.9186 21.8452 10.8835C21.8344 10.8483 21.8218 10.8137 21.8076 10.7798C21.7933 10.7459 21.7774 10.7128 21.7599 10.6805C21.7424 10.6482 21.7233 10.6168 21.7026 10.5864C21.682 10.5561 21.6598 10.5267 21.6363 10.4986C21.6127 10.4705 21.5878 10.4435 21.5616 10.4179C21.5354 10.3922 21.5079 10.368 21.4793 10.3451C21.4507 10.3222 21.4209 10.3008 21.3901 10.281C21.3594 10.2611 21.3276 10.2428 21.2951 10.2261C21.2625 10.2094 21.2291 10.1943 21.1951 10.181C21.161 10.1677 21.1263 10.156 21.0911 10.1462C21.0559 10.1364 21.0202 10.1283 20.9842 10.122C20.9482 10.1158 20.9119 10.1114 20.8754 10.1088C20.8496 10.1069 20.8237 10.106 20.7979 10.106V10.106Z" fill="url(#paint1_radial_343_9)"/>
<path d="M15.1349 7.01628C14.6342 7.01547 14.1874 7.01755 13.7861 7.0232L12.71 7.05203C12.3913 7.06587 12.1096 7.08392 11.8568 7.10727C11.7304 7.11892 11.6112 7.13196 11.4982 7.14631C11.3906 7.15987 11.2833 7.17566 11.1764 7.19366C11.0747 7.21096 10.9781 7.22964 10.8855 7.24994C10.7929 7.27024 10.7044 7.29215 10.6191 7.31568C10.5356 7.33868 10.4528 7.36399 10.3708 7.39156C10.2904 7.41867 10.212 7.44738 10.1346 7.47806C9.97966 7.53942 9.82858 7.60827 9.673 7.68542C9.55329 7.74482 9.44269 7.80496 9.33762 7.86863C9.23256 7.93229 9.13303 7.99953 9.03557 8.07276C8.93521 8.14855 8.83848 8.22902 8.74569 8.31392C8.6487 8.40226 8.54963 8.49942 8.4467 8.60801C8.31736 8.74369 8.20497 8.87021 8.10521 8.99436C8.05533 9.05641 8.00862 9.11776 7.96462 9.17947C7.92111 9.24027 7.87951 9.30243 7.83989 9.36584C7.80068 9.42869 7.76354 9.4927 7.72802 9.55856C7.69194 9.62554 7.65785 9.69358 7.62578 9.76257C7.56016 9.90351 7.49892 10.0553 7.43779 10.2247C7.39245 10.35 7.35184 10.4769 7.31606 10.6052C7.27956 10.7363 7.24709 10.8735 7.21815 11.0219C7.1892 11.1702 7.16394 11.3298 7.14174 11.5062C7.11782 11.6997 7.0987 11.8937 7.08442 12.088C7.06828 12.3017 7.0549 12.5369 7.04394 12.7986L7.01799 13.6689L7.00404 14.7298L7 16.0121L7.01182 17.8768L7.04873 19.2896L7.07716 19.8414L7.11268 20.2987C7.12406 20.422 7.13831 20.5449 7.15541 20.6675C7.17098 20.7764 7.1877 20.8717 7.20569 20.9541C7.2422 21.1218 7.28536 21.2879 7.33509 21.4521C7.3827 21.6094 7.43715 21.7644 7.49828 21.9169C7.55837 22.0663 7.62411 22.2103 7.69561 22.3489C7.76712 22.4876 7.84439 22.6208 7.92743 22.7487C8.01046 22.8767 8.09927 22.9994 8.19407 23.1169C8.28876 23.2343 8.38948 23.3468 8.49583 23.4539C8.60234 23.5611 8.71467 23.6632 8.83305 23.7602C8.95284 23.8583 9.07735 23.9505 9.20615 24.0364C9.32569 24.1163 9.44396 24.1895 9.56309 24.2567C9.68223 24.3238 9.8024 24.3848 9.92592 24.4402C10.0494 24.4956 10.1761 24.5455 10.3084 24.5904C10.4406 24.6352 10.5785 24.6751 10.7241 24.7105C10.8698 24.746 11.024 24.777 11.1872 24.8041C11.3504 24.8312 11.5248 24.8545 11.7112 24.8745C11.8975 24.8945 12.0964 24.911 12.31 24.9249C12.5237 24.9387 12.752 24.9498 12.9974 24.9587C13.3764 24.9724 13.9502 24.9804 14.6118 24.9835L16.7538 24.9791L18.7821 24.9507L19.5533 24.929L20.0558 24.9032C20.1636 24.8944 20.2691 24.8841 20.3709 24.8719C20.4728 24.8597 20.5732 24.8458 20.671 24.83C20.7688 24.8142 20.8644 24.7966 20.9584 24.777C21.0512 24.7576 21.1436 24.736 21.2354 24.7122C21.3263 24.6892 21.4159 24.6629 21.5046 24.6351C21.5933 24.6072 21.681 24.5771 21.7683 24.5448C21.856 24.5123 21.943 24.4777 22.029 24.441C22.1157 24.4041 22.2023 24.3646 22.2891 24.3227C22.4225 24.2585 22.5299 24.2049 22.6241 24.1526C22.7128 24.104 22.7982 24.0496 22.8798 23.9898C22.9603 23.9305 23.0404 23.863 23.1326 23.778C23.2249 23.693 23.3295 23.5906 23.4589 23.4611C23.5727 23.3474 23.6686 23.2486 23.7514 23.1587C23.8341 23.0688 23.9039 22.9879 23.965 22.9099C24.0232 22.8359 24.0775 22.7589 24.1276 22.6791C24.1764 22.6013 24.2214 22.5204 24.2673 22.4308C24.3362 22.2958 24.3976 22.1709 24.4525 22.0503C24.5059 21.9341 24.5546 21.8158 24.5987 21.6958C24.642 21.5767 24.6796 21.4555 24.7112 21.3328C24.7437 21.2065 24.7717 21.0732 24.7959 20.9269C24.8201 20.7807 24.8406 20.6215 24.8584 20.4438C24.8761 20.2661 24.8912 20.0697 24.9045 19.849L24.9397 19.1082L24.9699 18.1869L24.9915 17.1604L24.9998 16.0872L24.9805 13.9792L24.9547 13.0351L24.9196 12.2244L24.8757 11.5924C24.8598 11.4165 24.8426 11.278 24.8244 11.1844C24.8043 11.0809 24.7817 10.9779 24.7568 10.8755C24.7326 10.7758 24.706 10.6767 24.677 10.5783C24.6487 10.4824 24.618 10.3873 24.5848 10.293C24.5521 10.1999 24.5173 10.1087 24.481 10.0195C24.4447 9.93032 24.4054 9.84319 24.3644 9.7579C24.3235 9.67262 24.2806 9.58941 24.2355 9.5081C24.1905 9.42679 24.1436 9.3475 24.0945 9.27017C24.0454 9.19284 23.9943 9.11748 23.9411 9.04413C23.8882 8.97101 23.833 8.89957 23.7756 8.8299C23.7185 8.76062 23.6592 8.69315 23.5979 8.62761C23.5366 8.56215 23.4733 8.49865 23.408 8.4372C23.3427 8.37573 23.2754 8.31622 23.2059 8.25867C23.1362 8.20093 23.0648 8.14537 22.9916 8.09208C22.9177 8.03824 22.8422 7.98666 22.7651 7.93742C22.687 7.88748 22.6075 7.83987 22.5265 7.79464C22.4442 7.74866 22.3605 7.70505 22.2757 7.66386C22.1349 7.59541 22.0047 7.53469 21.8768 7.48083C21.7512 7.42738 21.623 7.3799 21.4929 7.33857C21.362 7.29734 21.2257 7.26199 21.0758 7.23149C20.9259 7.20098 20.7624 7.17555 20.5773 7.15393C20.3923 7.1323 20.1857 7.11483 19.9494 7.1003C19.713 7.08577 19.4473 7.07435 19.1438 7.06512L18.1124 7.04206L16.807 7.02666L15.1354 7.0164L15.1349 7.01628ZM16.003 8.60218L18.4136 8.61591L19.3229 8.63344C19.5734 8.64047 19.7645 8.64872 19.8765 8.65823C20.0224 8.67052 20.1614 8.68591 20.2943 8.70436C20.4219 8.72198 20.5488 8.74388 20.6749 8.77004C20.796 8.79542 20.9115 8.82425 21.022 8.85677C21.1326 8.8893 21.2382 8.92574 21.3395 8.96605C21.4408 9.00636 21.5377 9.0507 21.6309 9.09925C21.7234 9.14744 21.8133 9.20047 21.9002 9.25812C21.9867 9.3155 22.0701 9.37731 22.1511 9.44392C22.232 9.51052 22.3105 9.58191 22.3871 9.65826C22.4681 9.73882 22.5427 9.82087 22.6115 9.90553C22.68 9.98965 22.7434 10.0778 22.8014 10.1696C22.86 10.2626 22.9128 10.3592 22.9595 10.4588C23.0072 10.5603 23.0501 10.6675 23.0886 10.7815C23.1272 10.8955 23.1615 11.0167 23.1919 11.1461C23.2237 11.2834 23.2504 11.4218 23.2718 11.561C23.2949 11.7087 23.3146 11.8661 23.3313 12.0346C23.348 12.2032 23.3619 12.3829 23.3733 12.5752C23.3824 12.7295 23.3903 12.9331 23.3971 13.1735L23.414 13.9932L23.4269 16.0011L23.4122 18.0071L23.3946 18.8244L23.3703 19.4189C23.3534 19.6972 23.3357 19.9312 23.3145 20.1349C23.3038 20.2367 23.2923 20.3309 23.2795 20.4193C23.2675 20.5029 23.2533 20.586 23.2368 20.6688C23.2218 20.7443 23.2044 20.8193 23.1847 20.8937C23.1657 20.9647 23.1444 21.035 23.1207 21.1046C23.0969 21.1745 23.0709 21.2436 23.0429 21.3119C23.0133 21.3841 22.9821 21.4556 22.9492 21.5263C22.92 21.5894 22.8892 21.6508 22.8567 21.7106C22.8246 21.7698 22.7904 21.8279 22.7543 21.8848C22.7185 21.9411 22.6811 21.9959 22.6419 22.0488C22.6029 22.1017 22.562 22.1531 22.5193 22.2029C22.4767 22.2526 22.4323 22.3007 22.3862 22.3471C22.3401 22.3935 22.2922 22.4383 22.2426 22.4816C22.193 22.5248 22.1416 22.5663 22.0884 22.6064C22.0352 22.6464 21.9801 22.6848 21.9232 22.7216C21.8663 22.7584 21.8076 22.7936 21.7469 22.8273C21.6863 22.861 21.6238 22.8932 21.5595 22.9238C21.4941 22.9549 21.4278 22.984 21.3607 23.0111C21.2912 23.0391 21.221 23.0652 21.1502 23.0892C21.006 23.1384 20.854 23.1815 20.6939 23.2187C20.527 23.2572 20.3587 23.2887 20.1892 23.3132C20.124 23.3227 19.9743 23.3316 19.7598 23.3399L18.9423 23.3626L16.6247 23.3927L14.199 23.3965L13.2464 23.3864L12.6278 23.3671L12.1717 23.3351C12.0301 23.3231 11.8984 23.3099 11.7749 23.2948C11.6515 23.2798 11.5366 23.263 11.4285 23.2441C11.326 23.2264 11.2242 23.2052 11.1232 23.1806C11.031 23.1582 10.9398 23.1321 10.8498 23.1023C10.763 23.0735 10.6801 23.0418 10.5993 23.0069C10.5186 22.972 10.4402 22.9338 10.3625 22.892C10.2848 22.8503 10.208 22.8049 10.1302 22.7555C10.0716 22.7183 10.0149 22.6806 9.96035 22.6406C9.9058 22.6006 9.85309 22.5608 9.80234 22.519C9.7516 22.4773 9.70287 22.4343 9.65588 22.39C9.60919 22.3459 9.56411 22.3002 9.52071 22.2529C9.47746 22.2057 9.43611 22.1571 9.39644 22.1069C9.35661 22.0564 9.31866 22.0044 9.28267 21.9512C9.24614 21.8971 9.21157 21.8417 9.17904 21.7851C9.14617 21.728 9.11492 21.6689 9.08522 21.6081C9.05503 21.546 9.02685 21.483 9.00074 21.4191C8.97422 21.354 8.94908 21.2869 8.92543 21.2176C8.87815 21.0789 8.83663 20.9313 8.80053 20.7739C8.76443 20.6164 8.73364 20.4492 8.70758 20.271C8.68151 20.0929 8.66052 19.9039 8.6438 19.7032C8.63146 19.5552 8.62165 19.3249 8.61416 19.0342L8.59847 18.0006L8.60424 15.3656L8.64962 12.8477L8.68422 11.9606L8.70383 11.6674C8.71063 11.5891 8.71767 11.531 8.72487 11.4962C8.74863 11.3816 8.77256 11.275 8.7973 11.1752C8.82041 11.081 8.84612 10.9875 8.8744 10.8948C8.90127 10.8072 8.92959 10.7252 8.95986 10.6476C8.98905 10.5723 9.02159 10.4984 9.05737 10.4261C9.09232 10.3557 9.12986 10.2884 9.17062 10.2228C9.21139 10.1572 9.25539 10.0936 9.30337 10.0304C9.35135 9.96711 9.40301 9.90466 9.45924 9.84134C9.51546 9.77803 9.57618 9.71408 9.64204 9.64817C9.71878 9.57098 9.7987 9.49701 9.88158 9.42645C9.95983 9.35987 10.0414 9.29734 10.1261 9.23909C10.2093 9.18143 10.2946 9.13011 10.3835 9.08294C10.4724 9.03577 10.5647 8.99315 10.6619 8.9548C10.7591 8.91646 10.8611 8.88215 10.9693 8.85101C11.0828 8.81914 11.1977 8.79196 11.3135 8.76953C11.4353 8.74565 11.5646 8.72484 11.7028 8.70667C11.8409 8.68851 11.9878 8.67282 12.1449 8.65921C12.2544 8.64976 12.4432 8.64134 12.6918 8.63424L13.5966 8.61637L16.0034 8.60166L16.003 8.60218Z" fill="url(#paint2_radial_343_9)"/>
</g>
<defs>
<radialGradient id="paint0_radial_343_9" cx="0" cy="0" r="1" gradientUnits="userSpaceOnUse" gradientTransform="translate(9.86784 26.2932) rotate(-9.53101) scale(38.0422 23.0914)">
<stop stop-color="#FED576"/>
<stop offset="0.263" stop-color="#F47133"/>
<stop offset="0.609" stop-color="#BC3081"/>
<stop offset="1" stop-color="#4C63D2"/>
</radialGradient>
<radialGradient id="paint1_radial_343_9" cx="0" cy="0" r="1" gradientUnits="userSpaceOnUse" gradientTransform="translate(9.86788 26.2932) rotate(-9.53101) scale(38.0422 23.0914)">
<stop stop-color="#FED576"/>
<stop offset="0.263" stop-color="#F47133"/>
<stop offset="0.609" stop-color="#BC3081"/>
<stop offset="1" stop-color="#4C63D2"/>
</radialGradient>
<radialGradient id="paint2_radial_343_9" cx="0" cy="0" r="1" gradientUnits="userSpaceOnUse" gradientTransform="translate(9.86768 26.2932) rotate(-9.53101) scale(38.0422 23.0914)">
<stop stop-color="#FED576"/>
<stop offset="0.263" stop-color="#F47133"/>
<stop offset="0.609" stop-color="#BC3081"/>
<stop offset="1" stop-color="#4C63D2"/>
</radialGradient>
<clipPath id="clip0_343_9">
<rect width="18" height="18" fill="white" transform="translate(7 7)"/>
</clipPath>
</defs>
</svg>
