<svg width="32" height="32" viewBox="0 0 32 32" fill="none" xmlns="http://www.w3.org/2000/svg">
<rect width="32" height="32" rx="16" fill="#FF0000"/>
<path d="M24.1448 11.8776C23.9493 11.1385 23.3732 10.5565 22.6418 10.3589C21.3161 10 16 10 16 10C16 10 10.684 10 9.35821 10.3589C8.6268 10.5565 8.05075 11.1385 7.85523 11.8776C7.5 13.2172 7.5 16.0121 7.5 16.0121C7.5 16.0121 7.5 18.8071 7.85523 20.1467C8.05075 20.8857 8.6268 21.4435 9.35821 21.6411C10.684 22 16 22 16 22C16 22 21.316 22 22.6418 21.6411C23.3732 21.4435 23.9493 20.8857 24.1448 20.1467C24.5 18.8071 24.5 16.0121 24.5 16.0121C24.5 16.0121 24.5 13.2172 24.1448 11.8776ZM14.2614 18.5497V13.4745L18.7045 16.0122L14.2614 18.5497Z" fill="white"/>
</svg>
