<svg width="25" height="24" viewBox="0 0 25 24" fill="none" xmlns="http://www.w3.org/2000/svg">
<rect width="25" height="24" fill="#1E1E1E"/>
<g clip-path="url(#clip0_0_1)">
<path d="M4.34043 1.93444e-06H20.1702C20.7404 -0.000537727 21.305 0.111842 21.8319 0.33071C22.3587 0.549578 22.8374 0.870637 23.2406 1.27551C23.6437 1.68039 23.9634 2.16113 24.1813 2.69023C24.3993 3.21933 24.5112 3.7864 24.5106 4.35898V19.641C24.5112 20.2136 24.3993 20.7807 24.1813 21.3098C23.9634 21.8389 23.6437 22.3196 23.2406 22.7245C22.8374 23.1294 22.3587 23.4504 21.8319 23.6693C21.305 23.8882 20.7404 24.0005 20.1702 24H4.34043C3.77028 24.0005 3.20563 23.8882 2.67878 23.6693C2.15194 23.4504 1.67324 23.1294 1.27008 22.7245C0.866932 22.3196 0.547239 21.8389 0.329303 21.3098C0.111366 20.7807 -0.000535439 20.2136 1.92621e-06 19.641V4.35898C-0.000535439 3.7864 0.111366 3.21933 0.329303 2.69023C0.547239 2.16113 0.866932 1.68039 1.27008 1.27551C1.67324 0.870637 2.15194 0.549578 2.67878 0.33071C3.20563 0.111842 3.77028 -0.000537727 4.34043 1.93444e-06Z" fill="#00005B"/>
<path d="M9.84512 14.3589H6.04597L5.2698 16.7794C5.26112 16.8234 5.23641 16.8625 5.20051 16.889C5.1646 16.9156 5.12011 16.9277 5.07576 16.923H3.15576C3.04342 16.923 3.01278 16.8615 3.04342 16.7384L6.33193 7.27175C6.36256 7.16919 6.3932 7.07688 6.43405 6.9538C6.47516 6.73399 6.49567 6.51079 6.49533 6.28714C6.49227 6.26145 6.49899 6.23555 6.51414 6.21463C6.52929 6.19371 6.55176 6.17931 6.57703 6.17432H9.22214C9.29363 6.17432 9.34469 6.20509 9.3549 6.25637L13.0826 16.7692C13.1132 16.882 13.0826 16.9333 12.9804 16.9333H10.846C10.8099 16.9368 10.7737 16.9274 10.7438 16.9068C10.7139 16.8861 10.6922 16.8556 10.6826 16.8205L9.84512 14.3589ZM6.63831 12.3179H9.23235C9.17108 12.1025 9.08937 11.8461 8.99746 11.5794C8.90554 11.3128 8.81363 11.0051 8.72171 10.6974C8.6298 10.3897 8.52767 10.0718 8.42554 9.7538C8.32342 9.43585 8.2315 9.13842 8.1498 8.84098C8.0681 8.54355 7.99661 8.28714 7.92512 8.04098H7.90469C7.81291 8.488 7.69699 8.92968 7.55746 9.36406C7.40427 9.85637 7.25108 10.3692 7.08767 10.882C6.9549 11.4051 6.7915 11.8871 6.63831 12.3179ZM19.1387 13.4153H15.9013C15.9399 13.739 16.0479 14.0504 16.2179 14.3282C16.3984 14.6046 16.6584 14.8193 16.9634 14.9435C17.3762 15.1208 17.8218 15.2082 18.2706 15.2C18.6273 15.1934 18.9827 15.1556 19.3328 15.0871C19.6442 15.0462 19.9495 14.967 20.2417 14.8512C20.2928 14.8102 20.3234 14.8307 20.3234 14.9333V16.5025C20.3216 16.5442 20.3148 16.5856 20.303 16.6256C20.2845 16.6544 20.2602 16.6789 20.2315 16.6974C19.9049 16.8414 19.5619 16.9448 19.2102 17.0051C18.7325 17.0973 18.2464 17.1386 17.76 17.1282C16.9838 17.1282 16.3302 17.0051 15.7992 16.7692C15.2994 16.5514 14.8584 16.2174 14.5124 15.7948C14.189 15.3997 13.9492 14.9425 13.8077 14.4512C13.5084 13.428 13.5226 12.338 13.8485 11.323C14.0114 10.8095 14.2715 10.3324 14.6145 9.91791C14.9522 9.50805 15.3736 9.17578 15.8502 8.94355C16.3302 8.70765 16.9021 8.6256 17.5558 8.6256C18.1003 8.61291 18.6409 8.72149 19.1387 8.94355C19.5571 9.1257 19.9251 9.4073 20.2111 9.76406C20.4825 10.1144 20.69 10.5102 20.8238 10.9333C20.9537 11.3375 21.0192 11.7598 21.0179 12.1846C21.0179 12.4307 21.0077 12.6461 20.9975 12.841C20.9872 13.0359 20.9668 13.1794 20.9566 13.2718C20.9521 13.3073 20.9353 13.3401 20.9092 13.3645C20.8831 13.3888 20.8492 13.4032 20.8136 13.4051C20.7524 13.4051 20.64 13.4153 20.4766 13.4256C20.28 13.448 20.0822 13.4583 19.8843 13.4564C19.6494 13.4564 19.4043 13.4153 19.1387 13.4153ZM15.9013 11.9179H18.0562C18.3217 11.9179 18.5158 11.9179 18.6383 11.9076C18.7222 11.9006 18.803 11.8724 18.8732 11.8256V11.723C18.8736 11.594 18.8529 11.4658 18.8119 11.3435C18.7225 11.0629 18.5447 10.8191 18.3052 10.6489C18.0657 10.4787 17.7775 10.3913 17.4843 10.4C17.2071 10.3843 16.9314 10.4496 16.6903 10.588C16.4493 10.7263 16.2533 10.9317 16.126 11.1794C16.0068 11.4098 15.9307 11.66 15.9013 11.9179Z" fill="#9999FF"/>
</g>
<defs>
<clipPath id="clip0_0_1">
<rect width="24.5106" height="24" fill="white"/>
</clipPath>
</defs>
</svg>
