<svg width="24" height="24" viewBox="0 0 24 24" fill="none" xmlns="http://www.w3.org/2000/svg">
<path fill-rule="evenodd" clip-rule="evenodd" d="M24 0.720002C24 0.322643 23.6774 0 23.28 0H0.719999C0.322641 0 0 0.322643 0 0.720002V23.28C0 23.6774 0.322641 24 0.719999 24H23.28C23.6774 24 24 23.6774 24 23.28V0.720002Z" fill="#144E8C"/>
<mask id="mask0_93_506" style="mask-type:luminance" maskUnits="userSpaceOnUse" x="0" y="0" width="24" height="24">
<path fill-rule="evenodd" clip-rule="evenodd" d="M24 0.720002C24 0.322643 23.6774 0 23.28 0H0.719999C0.322641 0 0 0.322643 0 0.720002V23.28C0 23.6774 0.322641 24 0.719999 24H23.28C23.6774 24 24 23.6774 24 23.28V0.720002Z" fill="white"/>
</mask>
<g mask="url(#mask0_93_506)">
<path fill-rule="evenodd" clip-rule="evenodd" d="M24 0.720002C24 0.322643 23.6774 0 23.28 0H0.719999C0.322641 0 0 0.322643 0 0.720002V23.28C0 23.6774 0.322641 24 0.719999 24H23.28C23.6774 24 24 23.6774 24 23.28V0.720002Z" fill="#1B72BE"/>
<path fill-rule="evenodd" clip-rule="evenodd" d="M24 0.720002C24 0.322643 23.6774 0 23.28 0H9.84L0 17.0434V23.28C0 23.6774 0.322641 24 0.719999 24H23.28C23.6774 24 24 23.6774 24 23.28V0.720002Z" fill="#0568AA"/>
<path fill-rule="evenodd" clip-rule="evenodd" d="M11.0964 24H9.42263L5.09931 15.3083L13.5242 0H14.88L6.06003 15.2767L11.0964 24ZM15.6305 24H11.4564L6.53798 15.481H24.0017L24 17.0716L15.6305 24ZM11.4818 0H10.08L0 17.4591V19.8871L11.4818 0ZM13.9167 15.167H9.16955C8.61544 15.167 8.10019 14.8771 7.82311 14.3974C7.54642 13.9181 7.54642 13.3257 7.82311 12.8465L10.2 8.72959L13.9167 15.167ZM24 15.167H14.2767L10.38 8.41775L15.24 0L17.0009 0.00110878L14.4432 8.70209L15.6305 11.1409L24 14.4322V15.167Z" fill="#074F7F"/>
<path fill-rule="evenodd" clip-rule="evenodd" d="M23.9999 23.9998H11.8164L7.07805 15.7927H23.9999V23.9998ZM10.7364 23.9998H0V18.0826L10.44 -0.00012207H14.5199L5.69998 15.2766L10.7364 23.9998ZM13.3776 14.8569H9.2525C8.79201 14.8569 8.3665 14.6152 8.13625 14.2163C7.90628 13.8181 7.90628 13.3257 8.13625 12.9275C9.05258 11.3403 10.2 9.35306 10.2 9.35306L13.3776 14.8569ZM23.9999 14.8569H14.4581L10.74 8.41767L15.5999 -0.00012207H23.9999V14.8569Z" fill="url(#paint0_radial_93_506)"/>
<path fill-rule="evenodd" clip-rule="evenodd" d="M24.5568 24.4411H12.0712L7.07802 15.7927H24.5481L24.5568 24.4411ZM5.69995 15.2766L10.9912 24.4411H-0.736598L-0.775879 19.4262L10.7298 -0.502197H14.8098L5.69995 15.2766ZM7.57686 16.0807L12.2375 24.1533H24.2685L24.2605 16.0807H7.57686ZM10.896 -0.21415L-0.487271 19.5024L-0.450849 24.1533H10.4924L5.36739 15.2766L14.3109 -0.21415H10.896ZM13.3776 14.8568H9.24169L9.2363 14.8566H9.22555L9.22015 14.8564H9.21479L9.20942 14.8561L9.20405 14.8559L9.19869 14.8557L9.19332 14.8554L9.18798 14.8552L9.18261 14.855L9.17726 14.8547L9.17192 14.8543L9.16658 14.854L9.16126 14.8536L9.15591 14.8533L9.15059 14.8529L9.14527 14.8524L9.13995 14.8519L9.13463 14.8514L9.12933 14.851L9.12401 14.8505L9.11872 14.85L9.11342 14.8493L9.10812 14.8489L9.10285 14.8482L9.09755 14.8477L9.09228 14.847L9.08701 14.8463L9.08176 14.8456L9.07648 14.8449L9.07123 14.8442L9.06598 14.8435L9.06073 14.8428L9.05548 14.8418L9.05026 14.8411L9.04503 14.8402L9.0398 14.8395L9.03458 14.8386L9.02935 14.8376L9.02415 14.8367L9.01894 14.8357L9.01376 14.8348L9.00856 14.8339L9.00338 14.8329L8.9982 14.8318L8.99302 14.8308L8.98787 14.8296L8.98269 14.8287L8.97753 14.8275L8.9724 14.8264L8.96724 14.8252L8.96211 14.8243L8.95698 14.8229L8.95184 14.8217L8.94673 14.8205L8.94162 14.8193L8.93652 14.8179L8.93143 14.8168L8.92634 14.8156L8.92126 14.8142L8.91617 14.8128L8.91111 14.8114L8.90605 14.81L8.90098 14.8086L8.89592 14.8071L8.89088 14.8057L8.88584 14.8043L8.88083 14.8029L8.87581 14.8013L8.8708 14.7999L8.86578 14.7982L8.86079 14.7966L8.8558 14.7952L8.8508 14.7936L8.84584 14.7919L8.84087 14.7903L8.8359 14.7886L8.83095 14.7868L8.82601 14.7851L8.82106 14.7835L8.81614 14.7818L8.81122 14.78L8.8063 14.7781L8.8014 14.7764L8.7965 14.7746L8.79163 14.7727L8.78673 14.7708L8.78185 14.7689L8.777 14.7671L8.77215 14.7652L8.7673 14.7633L8.76247 14.7612L8.75764 14.7593L8.75281 14.7572L8.74801 14.7554L8.7432 14.7532L8.7384 14.7511L8.73362 14.749L8.72884 14.7471L8.72408 14.7448L8.71932 14.7427L8.71456 14.7406L8.70983 14.7385L8.70509 14.7364L8.70038 14.734L8.69567 14.7319L8.69096 14.7296L8.68627 14.7275L8.68159 14.7251L8.67692 14.7228L8.67226 14.7204L8.66759 14.7181L8.66295 14.7157L8.65831 14.7134L8.6537 14.7111L8.64908 14.7087L8.64446 14.7061L8.63987 14.7038L8.6353 14.7012L8.63073 14.6989L8.62616 14.6963L8.62161 14.6937L8.61706 14.6911L8.61252 14.6886L8.60799 14.6862L8.60349 14.6836L8.59899 14.6808L8.59449 14.6782L8.59002 14.6757L8.58556 14.6729L8.58109 14.6703L8.57666 14.6677L8.5722 14.6649L8.56777 14.6621L8.56337 14.6593L8.55896 14.6567L8.55458 14.6539L8.5502 14.6511L8.54584 14.6482L8.54148 14.6454L8.53712 14.6424L8.53278 14.6396L8.52847 14.6368L8.52416 14.6337L8.51985 14.6309L8.51556 14.6278L8.51129 14.6248L8.50702 14.622L8.50276 14.6189L8.49852 14.6159L8.4943 14.6129L8.49008 14.6098L8.48586 14.6068L8.48169 14.6037L8.47749 14.6004L8.47332 14.5974L8.46917 14.5943L8.46502 14.5911L8.4609 14.588L8.45677 14.5847L8.45267 14.5814L8.44857 14.5782L8.44449 14.5751L8.44042 14.5718L8.43636 14.5686L8.43233 14.565L8.4283 14.5618L8.42427 14.5585L8.42028 14.5552L8.41628 14.5517L8.41231 14.5484L8.40833 14.5451L8.40439 14.5416L8.40045 14.5381L8.39652 14.5348L8.3926 14.5313L8.38871 14.5278L8.38482 14.5243L8.38095 14.5207L8.37711 14.5172L8.37327 14.5137L8.36942 14.5102L8.3656 14.5064L8.36181 14.5029L8.35803 14.4992L8.35424 14.4957L8.35049 14.4919L8.34674 14.4884L8.34301 14.4846L8.33928 14.4809L8.33558 14.4771L8.3319 14.4734L8.32822 14.4696L8.32456 14.4659L8.32091 14.4622L8.31728 14.4584L8.31367 14.4546L8.31006 14.4507L8.30647 14.4469L8.30291 14.4432L8.29935 14.4392L8.29581 14.4352L8.29227 14.4314L8.28878 14.4275L8.28526 14.4235L8.28179 14.4195L8.27832 14.4155L8.27485 14.4115L8.27143 14.4075L8.26801 14.4036L8.26459 14.3996L8.26121 14.3956L8.25784 14.3914L8.25446 14.3874L8.25113 14.3832L8.24781 14.3792L8.24448 14.375L8.2412 14.3707L8.23792 14.3668L8.23463 14.3625L8.2314 14.3583L8.22817 14.3541L8.22495 14.3499L8.22174 14.3457L8.21856 14.3414L8.21539 14.3372L8.21225 14.333L8.20911 14.3286L8.20599 14.3243L8.20288 14.3199L8.19981 14.3157L8.19674 14.3112L8.19367 14.3068L8.19064 14.3025L8.18762 14.2981L8.18462 14.2936L8.18164 14.2892L8.17867 14.2847L8.17571 14.2803L8.17278 14.2758L8.16985 14.2714L8.16697 14.2669L8.16409 14.2622L8.16121 14.2578L8.15837 14.2533L8.15553 14.2486L8.15272 14.2442L8.14993 14.2395L8.14714 14.2348L8.14438 14.2304L8.14163 14.2257L8.13892 14.221L8.13622 14.2163L8.13353 14.2116L8.13085 14.2069L8.12821 14.2022L8.12558 14.1975L8.12298 14.1929L8.1204 14.1882L8.11785 14.1835L8.11529 14.1788L8.11278 14.1739L8.11028 14.1692L8.10781 14.1645L8.10535 14.1596L8.10292 14.1549L8.1005 14.1502L8.09811 14.1453L8.09574 14.1406L8.09338 14.1357L8.09106 14.131L8.08876 14.1261L8.08646 14.1211L8.08419 14.1164L8.08196 14.1115L8.07974 14.1066L8.07753 14.1019L8.07535 14.097L8.07317 14.0921L8.07104 14.0874L8.06893 14.0825L8.06682 14.0775L8.06476 14.0726L8.0627 14.0677L8.06066 14.0628L8.05864 14.0579L8.05665 14.0529L8.05468 14.048L8.05274 14.0431L8.05082 14.0382L8.04889 14.0332L8.04702 14.0283L8.04514 14.0234L8.04329 14.0182L8.04149 14.0133L8.03968 14.0084L8.0379 14.0035L8.03614 13.9986L8.03439 13.9934L8.03267 13.9885L8.03099 13.9836L8.0293 13.9784L8.02766 13.9735L8.02602 13.9683L8.0244 13.9634L8.02281 13.9585L8.02124 13.9533L8.01969 13.9484L8.01817 13.9432L8.01667 13.9381L8.01517 13.9332L8.01371 13.928L8.01226 13.9231L8.01083 13.9179L8.00945 13.913L8.00807 13.9079L8.00671 13.9027L8.00537 13.8978L8.00403 13.8926L8.00275 13.8875L8.00148 13.8823L8.00021 13.8774L7.99897 13.8722L7.99778 13.8671L7.99658 13.8619L7.99541 13.857L7.99426 13.8518L7.99314 13.8467L7.99203 13.8415L7.99093 13.8364L7.98988 13.8312L7.98882 13.8261L7.98782 13.8209L7.98681 13.8157L7.98582 13.8106L7.98486 13.8057L7.98392 13.8005L7.98301 13.7954L7.98212 13.7902L7.98125 13.7848L7.98039 13.7799L7.97957 13.7745L7.97874 13.7693L7.97795 13.7642L7.97717 13.759L7.97645 13.7539L7.9757 13.7487L7.975 13.7436L7.97432 13.7384L7.97366 13.7332L7.973 13.7281L7.97239 13.7229L7.97178 13.7175L7.9712 13.7124L7.97066 13.7072L7.97012 13.7021L7.9696 13.6969L7.96911 13.6918L7.96862 13.6864L7.96817 13.6812L7.96775 13.6761L7.96733 13.6709L7.96693 13.6657L7.96658 13.6604L7.96623 13.6552L7.9659 13.65L7.9656 13.6449L7.96531 13.6397L7.96503 13.6343L7.9648 13.6292L7.96459 13.624L7.96438 13.6189L7.96419 13.6135L7.96405 13.6083L7.96391 13.6032L7.96379 13.598L7.9637 13.5926L7.96363 13.5875L7.96356 13.5823L7.96353 13.5772V13.5666L7.96356 13.5614L7.96363 13.5563L7.9637 13.5509L7.96379 13.5457L7.96391 13.5406L7.96405 13.5354L7.96419 13.53L7.96438 13.5249L7.96459 13.5197L7.9648 13.5146L7.96503 13.5092L7.96531 13.504L7.9656 13.4989L7.9659 13.4937L7.96623 13.4883L7.96658 13.4832L7.96693 13.478L7.96733 13.4729L7.96775 13.4677L7.96817 13.4625L7.96862 13.4571L7.96911 13.452L7.9696 13.4468L7.97012 13.4417L7.97066 13.4365L7.9712 13.4311L7.97178 13.426L7.97239 13.4208L7.973 13.4157L7.97366 13.4105L7.97432 13.4054L7.975 13.4002L7.9757 13.395L7.97645 13.3897L7.97717 13.3845L7.97795 13.3793L7.97874 13.3742L7.97957 13.369L7.98039 13.3639L7.98125 13.3587L7.98212 13.3536L7.98301 13.3484L7.98392 13.3432L7.98486 13.3381L7.98582 13.3329L7.98681 13.3278L7.98782 13.3226L7.98882 13.3175L7.98988 13.3125L7.99093 13.3074L7.99203 13.3022L7.99314 13.2971L7.99426 13.2919L7.99541 13.2868L7.99658 13.2816L7.99778 13.2767L7.99897 13.2715L8.00021 13.2664L8.00148 13.2612L8.00275 13.2563L8.00403 13.2511L8.00537 13.246L8.00671 13.2408L8.00807 13.2359L8.00945 13.2307L8.01083 13.2256L8.01226 13.2207L8.01371 13.2155L8.01517 13.2106L8.01667 13.2054L8.01817 13.2005L8.01969 13.1954L8.02124 13.1904L8.02281 13.1853L8.0244 13.1804L8.02602 13.1752L8.02766 13.1703L8.0293 13.1651L8.03099 13.1602L8.03267 13.1553L8.03439 13.1504L8.03614 13.1452L8.0379 13.1403L8.03968 13.1354L8.04149 13.1304L8.04329 13.1253L8.04514 13.1204L8.04702 13.1154L8.04889 13.1105L8.05082 13.1056L8.05274 13.1007L8.05468 13.0957L8.05665 13.0908L8.05864 13.0859L8.06066 13.081L8.0627 13.0761L8.06476 13.0711L8.06682 13.0662L8.06893 13.0613L8.07104 13.0564L8.07317 13.0515L8.07535 13.0468L8.07753 13.0418L8.07974 13.0369L8.08196 13.0322L8.08419 13.0273L8.08646 13.0224L8.08876 13.0177L8.09106 13.0128L8.09338 13.0079L8.09574 13.0032L8.09811 12.9985L8.1005 12.9936L8.10292 12.9889L8.10535 12.9839L8.10781 12.9793L8.11028 12.9746L8.11278 12.9699L8.11529 12.965L8.11785 12.9603L8.1204 12.9556L8.12298 12.9509L8.12558 12.9462L8.12821 12.9415L8.13085 12.9366L8.13353 12.9322L8.13622 12.9275L10.1999 9.35302L13.3776 14.8568ZM24.5422 14.8568H14.4576L10.7399 8.41763L15.8898 -0.502197H24.4379L24.5422 14.8568ZM8.38581 13.0711L8.38353 13.0751L8.38145 13.0786L8.37943 13.0822L8.37737 13.0859L8.37538 13.0897L8.37331 13.0934L8.37135 13.0969L8.36938 13.1007L8.36741 13.1044L8.36549 13.1079L8.36356 13.1117L8.36164 13.1154L8.35972 13.1192L8.35789 13.1227L8.35602 13.1265L8.35414 13.1304L8.35236 13.1339L8.35056 13.1377L8.34875 13.1414L8.34699 13.1452L8.34521 13.1489L8.34345 13.1527L8.34172 13.1567L8.34003 13.1602L8.33837 13.1639L8.33666 13.1679L8.33499 13.1717L8.33335 13.1754L8.33174 13.1792L8.33012 13.1829L8.32853 13.1869L8.32693 13.1907L8.32536 13.1944L8.32384 13.1982L8.32229 13.2022L8.32077 13.2059L8.31929 13.2097L8.31781 13.2136L8.31634 13.2174L8.31488 13.2214L8.31345 13.2251L8.31205 13.2289L8.31067 13.2329L8.30926 13.2368L8.3079 13.2406L8.30656 13.2443L8.30521 13.2483L8.30389 13.2523L8.3026 13.2561L8.30131 13.26L8.30005 13.2638L8.29881 13.2678L8.29756 13.2718L8.29635 13.2755L8.29513 13.2795L8.29395 13.2835L8.29278 13.2872L8.29161 13.2912L8.29049 13.2952L8.28938 13.2989L8.28826 13.3032L8.28718 13.3069L8.2861 13.3109L8.28505 13.3149L8.28402 13.3189L8.28299 13.3229L8.28198 13.3266L8.28099 13.3306L8.28001 13.3346L8.27905 13.3386L8.27814 13.3425L8.2772 13.3465L8.27628 13.3505L8.27539 13.3545L8.2745 13.3585L8.27366 13.3625L8.27281 13.3664L8.27199 13.3704L8.27117 13.3744L8.27038 13.3784L8.26963 13.3824L8.26885 13.3864L8.2681 13.3904L8.26738 13.3943L8.26667 13.3983L8.26597 13.4023L8.26529 13.4063L8.26461 13.4103L8.26398 13.4145L8.26335 13.4182L8.26274 13.4225L8.26213 13.4265L8.26156 13.4304L8.26098 13.4344L8.26044 13.4384L8.2599 13.4424L8.25939 13.4464L8.25889 13.4506L8.2584 13.4546L8.25796 13.4586L8.25749 13.4625L8.25706 13.4668L8.25664 13.4707L8.25624 13.4747L8.25585 13.4787L8.25549 13.4829L8.25514 13.4869L8.25479 13.4909L8.25449 13.4949L8.25418 13.4989L8.2539 13.5031L8.25362 13.5071L8.25336 13.5111L8.25313 13.5153L8.25292 13.5193L8.25271 13.5232L8.25252 13.5272L8.25235 13.5315L8.25219 13.5354L8.25205 13.5394L8.25193 13.5434L8.25181 13.5476L8.25172 13.5516L8.25165 13.5556L8.2516 13.5596L8.25156 13.5638L8.25153 13.5678V13.576L8.25156 13.58L8.25165 13.5879L8.25172 13.5921L8.25181 13.5961L8.25193 13.6001L8.25205 13.6043L8.25219 13.6083L8.25235 13.6123L8.25252 13.6165L8.25271 13.6205L8.25313 13.6285L8.25336 13.6327L8.25362 13.6367L8.25418 13.6446L8.25449 13.6489L8.25479 13.6529L8.25549 13.6608L8.25585 13.665L8.25664 13.673L8.25749 13.681L8.25793 13.6852L8.2584 13.6892L8.25939 13.6971L8.2599 13.7011L8.26098 13.7091L8.26156 13.7133L8.26213 13.7173L8.26335 13.7253L8.26461 13.7332L8.26529 13.7375L8.26597 13.7414L8.26738 13.7494L8.2681 13.7534L8.2696 13.7614L8.2704 13.7654L8.27117 13.7693L8.27281 13.7773L8.27366 13.7813L8.27539 13.7893L8.27628 13.7932L8.27811 13.8012L8.27905 13.8052L8.28001 13.8089L8.28099 13.8132L8.282 13.8169L8.28299 13.8209L8.28505 13.8289L8.2861 13.8329L8.28718 13.8368L8.28826 13.8406L8.28936 13.8446L8.29051 13.8486L8.29163 13.8525L8.29395 13.8603L8.29513 13.8643L8.29632 13.868L8.29881 13.876L8.30005 13.8797L8.30131 13.8837L8.3026 13.8877L8.30389 13.8914L8.30521 13.8954L8.30654 13.8992L8.3079 13.9032L8.30926 13.9069L8.31064 13.9109L8.31203 13.9146L8.31345 13.9186L8.31488 13.9224L8.31634 13.9264L8.31929 13.9339L8.32079 13.9379L8.32229 13.9416L8.32381 13.9454L8.32538 13.9493L8.32693 13.9531L8.33171 13.9643L8.33335 13.9683L8.33499 13.9721L8.33666 13.9758L8.33837 13.9796L8.34003 13.9833L8.34174 13.9873L8.34521 13.9948L8.34697 13.9983L8.34875 14.0021L8.35056 14.0061L8.35234 14.0096L8.35419 14.0133L8.35602 14.0171L8.35787 14.0208L8.35974 14.0246L8.36164 14.0283L8.36354 14.0318L8.36938 14.0431L8.37135 14.0468L8.37331 14.0504L8.37533 14.0541L8.37739 14.0579L8.37943 14.0614L8.38145 14.0651L8.38353 14.0686L8.3856 14.0724L8.38773 14.0759L8.38988 14.0796L8.39199 14.0832L8.39408 14.0867L8.39624 14.0902L8.39844 14.0939L8.40062 14.0975L8.40277 14.101L8.405 14.1045L8.40725 14.108L8.40948 14.1115L8.41173 14.115L8.414 14.1186L8.41623 14.1218L8.42082 14.1289L8.42312 14.1321L8.42551 14.1357L8.42781 14.1392L8.43013 14.1425L8.43252 14.146L8.4373 14.1525L8.43974 14.1561L8.4421 14.1593L8.44698 14.1659L8.44939 14.1692L8.45185 14.1725L8.45441 14.176L8.45685 14.179L8.45931 14.1823L8.46446 14.1889L8.46695 14.1919L8.46943 14.1952L8.47201 14.1985L8.47468 14.2018L8.47724 14.2048L8.47977 14.2079L8.48242 14.2111L8.48506 14.2142L8.48771 14.2175L8.49031 14.2205L8.49301 14.2236L8.49563 14.2266L8.49833 14.2296L8.50107 14.2329L8.50372 14.2357L8.50646 14.2388L8.50916 14.2418L8.51195 14.2449L8.51471 14.2479L8.51745 14.251L8.5202 14.2538L8.52301 14.2568L8.52584 14.2599L8.52861 14.2627L8.5314 14.2655L8.53426 14.2686L8.53717 14.2716L8.54279 14.2772L8.54572 14.28L8.54858 14.2829L8.55146 14.2857L8.55439 14.2885L8.55737 14.2915L8.56027 14.2941L8.56318 14.2969L8.5662 14.2997L8.56913 14.3025L8.57206 14.3051L8.57504 14.3079L8.57811 14.3107L8.58116 14.3136L8.58404 14.3161L8.58706 14.3187L8.59016 14.3215L8.5933 14.3241L8.59632 14.3269L8.59934 14.3295L8.60244 14.3321L8.60549 14.3347L8.60867 14.3372L8.61174 14.3398L8.61484 14.3424L8.61798 14.345L8.62109 14.3475L8.62424 14.3499L8.62747 14.3525L8.63063 14.355L8.63368 14.3574L8.63696 14.36L8.64027 14.3625L8.64338 14.3649L8.6466 14.3672L8.6499 14.3698L8.65304 14.3721L8.65627 14.3745L8.65963 14.3771L8.66291 14.3794L8.66616 14.3818L8.66945 14.3841L8.67266 14.3862L8.67596 14.3886L8.67936 14.3909L8.68269 14.3932L8.68939 14.3979L8.69263 14.4L8.696 14.4021L8.69949 14.4045L8.70275 14.4066L8.70615 14.4089L8.70969 14.4111L8.7163 14.4153L8.71984 14.4176L8.7233 14.4197L8.72666 14.4218L8.7301 14.4237L8.74407 14.4321L8.74761 14.4343L8.75101 14.4361L8.75443 14.438L8.75809 14.4401L8.76165 14.4422L8.76509 14.4441L8.76868 14.446L8.77213 14.4479L8.77573 14.4497L8.77932 14.4518L8.78293 14.4537L8.78656 14.4556L8.79008 14.4572L8.79359 14.4591L8.80091 14.4629L8.80445 14.4645L8.8118 14.4682L8.81537 14.4699L8.81909 14.4718L8.8228 14.4734L8.82638 14.475L8.82999 14.4767L8.83372 14.4786L8.83749 14.4802L8.84112 14.4818L8.84488 14.4835L8.84851 14.4851L8.85219 14.4865L8.85598 14.4882L8.85976 14.4898L8.86344 14.4914L8.86712 14.4929L8.8748 14.4961L8.87851 14.4975L8.88223 14.4989L8.88594 14.5004L8.8898 14.502L8.8973 14.5048L8.90122 14.5062L8.90497 14.5076L8.90888 14.509L8.91266 14.5104L8.91643 14.5116L8.92039 14.513L8.92419 14.5144L8.92798 14.5156L8.93197 14.517L8.93579 14.5182L8.93961 14.5196L8.9473 14.5219L8.95116 14.5231L8.95517 14.5245L8.96291 14.5268L8.96694 14.528L8.97069 14.5289L8.97458 14.5301L8.97863 14.5313L8.98255 14.5325L8.98646 14.5334L8.99054 14.5346L8.99448 14.5355L8.99827 14.5367L9.00223 14.5376L9.00634 14.5386L9.0103 14.5397L9.01409 14.5407L9.01808 14.5416L9.02223 14.5425L9.02621 14.5435L9.03019 14.5442L9.0342 14.5451L9.03805 14.5461L9.04222 14.547L9.04625 14.5477L9.05012 14.5486L9.05431 14.5493L9.05834 14.5503L9.06223 14.551L9.06629 14.5517L9.07037 14.5524L9.07442 14.5531L9.07864 14.5538L9.08651 14.5552L9.09076 14.5559L9.09484 14.5566L9.0988 14.5571L9.10292 14.5578L9.10702 14.5585L9.11115 14.5589L9.11527 14.5596L9.11926 14.5601L9.12338 14.5606L9.13168 14.5615L9.13583 14.5622L9.13983 14.5627L9.14384 14.5629L9.14801 14.5634L9.15237 14.5639L9.15638 14.5643L9.16041 14.5646L9.16477 14.565L9.16883 14.5653L9.17286 14.5657L9.17724 14.566L9.1813 14.5662L9.18535 14.5667L9.18959 14.5669L9.19381 14.5672L9.19805 14.5674L9.20213 14.5676L9.20623 14.5679H9.21047L9.21474 14.5681L9.21884 14.5683H9.22294L9.22723 14.5686H9.23562L9.23975 14.5688H12.8788L10.1999 9.92887L8.38581 13.0711ZM16.056 -0.21415L11.0725 8.41763L14.6239 14.5688H24.2523L24.152 -0.21415H16.056Z" fill="url(#paint1_linear_93_506)"/>
</g>
<defs>
<radialGradient id="paint0_radial_93_506" cx="0" cy="0" r="1" gradientUnits="userSpaceOnUse" gradientTransform="translate(18.344 -4.51066) scale(28.5104 28.5105)">
<stop stop-color="#6BE1FB"/>
<stop offset="1" stop-color="#38BDFA"/>
</radialGradient>
<linearGradient id="paint1_linear_93_506" x1="42440.8" y1="23.2601" x2="42440.8" y2="-0.739854" gradientUnits="userSpaceOnUse">
<stop stop-color="#4AC5FA"/>
<stop offset="1" stop-color="#97E8FC"/>
</linearGradient>
</defs>
</svg>
