<svg width="24" height="24" viewBox="0 0 24 24" fill="none" xmlns="http://www.w3.org/2000/svg">
<path d="M9 24C11.214 24 13 22.214 13 20V16H9C6.78605 16 5 17.786 5 20C5 22.214 6.78605 24 9 24Z" fill="#0ACF83"/>
<path d="M5 12C5 9.78605 6.78605 8 9 8H13V16H9C6.78605 16 5 14.214 5 12Z" fill="#A259FF"/>
<path d="M5 4C5 1.78605 6.78605 0 9 0H13V8H9C6.78605 8 5 6.21395 5 4Z" fill="#F24E1E"/>
<path d="M13 0H17C19.214 0 21 1.78605 21 4C21 6.21395 19.214 8 17 8H13V0Z" fill="#FF7262"/>
<path d="M21 12C21 14.214 19.214 16 17 16C14.786 16 13 14.214 13 12C13 9.78605 14.786 8 17 8C19.214 8 21 9.78605 21 12Z" fill="#1ABCFE"/>
</svg>
