<svg width="25" height="24" viewBox="0 0 25 24" fill="none" xmlns="http://www.w3.org/2000/svg">
<path d="M1.22228 10.3067L8.16348 3.35352L10.193 5.39505C9.90479 6.41581 10.3731 7.53265 11.3098 8.07306V14.726C10.5893 15.1344 10.1089 15.9149 10.1089 16.8036C10.1089 18.1301 11.1843 19.2054 12.5107 19.2054C13.8372 19.2054 14.9125 18.1301 14.9125 16.8036C14.9125 15.9149 14.4322 15.1344 13.7116 14.726V8.88967L16.1975 11.3995C16.1134 11.5797 16.1134 11.7838 16.1134 12C16.1134 13.3265 17.1888 14.4018 18.5152 14.4018C19.8417 14.4018 20.917 13.3265 20.917 12C20.917 10.6735 19.8417 9.5982 18.5152 9.5982C18.2991 9.5982 18.0949 9.5982 17.9148 9.68226L14.8285 6.59595C15.1407 5.47911 14.5643 4.25419 13.4474 3.78584C12.9311 3.5937 12.3907 3.54566 11.9103 3.67776L9.86876 1.64824L10.8175 0.711534C11.7542 -0.237178 13.2673 -0.237178 14.204 0.711534L23.7992 10.3067C24.7479 11.2434 24.7479 12.7566 23.7992 13.6933L14.204 23.2885C13.2673 24.2372 11.7542 24.2372 10.8175 23.2885L1.22228 13.6933C0.273564 12.7566 0.273564 11.2434 1.22228 10.3067Z" fill="#E64A19"/>
</svg>
