<svg width="25" height="24" viewBox="0 0 25 24" fill="none" xmlns="http://www.w3.org/2000/svg">
<g clip-path="url(#clip0_180_2)">
<path d="M8.03974 8.753H7.33474V9.694H8.04074C8.41674 9.694 8.60574 9.506 8.60574 9.223C8.60474 8.894 8.36974 8.753 8.03974 8.753ZM4.83974 9.035C4.83974 8.8 4.65174 8.706 4.36874 8.706H3.66374V9.412H4.32274C4.65174 9.365 4.83974 9.271 4.83974 9.035ZM11.0517 10.165H11.8987L11.4757 9.082L11.0517 10.165ZM4.46374 10.165H3.61674V10.871H4.46374C4.79274 10.871 4.98174 10.73 4.98174 10.495C4.98174 10.26 4.79274 10.165 4.46374 10.165ZM0.510742 0V24H24.5107V0H0.510742ZM8.93474 3.012H12.3697V3.953H11.1937V6.918H10.1107V3.953H8.93474V3.012ZM8.69874 3.012V3.906H6.62874V4.518H8.51074V5.365H6.62874V5.977H8.74674V6.918H5.59274L5.54574 3.012H8.69874ZM6.06374 10.635C6.06374 11.294 5.49874 11.717 4.60474 11.717H2.58174V7.812H4.60474C5.07574 7.812 5.45174 7.953 5.68674 8.141C5.82874 8.282 5.92274 8.518 5.92274 8.8C5.92274 9.271 5.68774 9.506 5.31074 9.694C5.78174 9.835 6.06374 10.118 6.06374 10.635ZM3.19274 5.647C3.38074 5.882 3.56874 6.023 3.80474 6.023C4.08674 6.023 4.22874 5.835 4.22874 5.458V2.965H5.31074V5.459C5.31074 5.93 5.16974 6.306 4.93474 6.541C4.69974 6.776 4.32274 6.918 3.85174 6.918C3.14574 6.965 2.76974 6.682 2.48774 6.306L3.19274 5.647ZM11.5697 20.988H2.58174V19.482H11.5697V20.988ZM12.4637 11.765L12.1817 11.059H10.6757L10.3937 11.765H9.26374L9.28374 11.718H8.60474L7.80474 10.542H7.33474V11.718H6.25174V7.812H8.08674C8.69874 7.812 9.07474 7.953 9.35774 8.236C9.59274 8.471 9.68674 8.754 9.68674 9.13C9.68674 9.742 9.35774 10.118 8.88674 10.354L9.49174 11.232L10.9567 7.813H11.9917L13.6387 11.766L12.4637 11.765ZM14.8637 11.718H13.7817V7.812H14.8637V11.718ZM18.8167 11.718H17.8757L16.2287 9.6V11.765H15.1467V7.812H16.1347L17.7347 9.883V7.812H18.8167V11.718ZM20.7457 11.765C20.4145 11.7907 20.0815 11.7497 19.7663 11.6446C19.4512 11.5395 19.1603 11.3724 18.9107 11.153L19.5227 10.447C19.8987 10.776 20.3227 10.918 20.7937 10.918C21.0757 10.918 21.2647 10.824 21.2647 10.636C21.2647 10.448 21.1237 10.401 20.6057 10.26C19.7587 10.072 19.1467 9.836 19.1467 9.036C19.1467 8.33 19.7117 7.765 20.6527 7.765C21.3117 7.765 21.8287 7.953 22.2527 8.283L21.6877 9.036C21.3107 8.8 20.9347 8.659 20.6047 8.659C20.3227 8.659 20.2287 8.753 20.2287 8.894C20.2287 9.082 20.3697 9.129 20.8877 9.27C21.7817 9.458 22.3467 9.741 22.3467 10.494C22.3457 11.294 21.7347 11.765 20.7457 11.765Z" fill="white"/>
</g>
<defs>
<clipPath id="clip0_180_2">
<rect width="24" height="24" fill="white" transform="translate(0.510742)"/>
</clipPath>
</defs>
</svg>
