<svg width="24" height="24" viewBox="0 0 24 24" fill="none" xmlns="http://www.w3.org/2000/svg">
<g clip-path="url(#clip0_93_455)">
<path d="M0 6.10352e-05H24V24.0001H0V6.10352e-05Z" fill="#F0DB4F"/>
<path d="M22.0359 18.2761C21.8602 17.181 21.1461 16.2616 19.0313 15.4038C18.2967 15.0662 17.4777 14.8244 17.2336 14.2677C17.1469 13.9438 17.1355 13.7613 17.1902 13.5651C17.3476 12.9286 18.1073 12.7301 18.7096 12.9126C19.0975 13.0426 19.4648 13.3415 19.6861 13.8183C20.7218 13.1476 20.7195 13.1521 21.4427 12.6913C21.1781 12.2807 21.0366 12.0913 20.8632 11.9157C20.2404 11.2198 19.3918 10.8617 18.0343 10.889C17.7994 10.9187 17.5621 10.9506 17.3271 10.9803C16.6496 11.1514 16.0039 11.5073 15.6252 11.9841C14.4891 13.2731 14.813 15.5293 16.1956 16.4579C17.5575 17.4799 19.5583 17.7126 19.8138 18.6685C20.0625 19.8388 18.9538 20.2175 17.8518 20.083C17.0397 19.9141 16.588 19.5012 16.0997 18.7506C15.2009 19.2708 15.2009 19.2708 14.2769 19.8023C14.496 20.2814 14.7264 20.4982 15.0937 20.9134C16.8321 22.6769 21.1826 22.5902 21.9629 19.921C21.9948 19.8297 22.2047 19.2183 22.0359 18.2761ZM13.0473 11.0305H10.8024C10.8024 12.9696 10.7933 14.8951 10.7933 16.8343C10.7933 18.0685 10.8572 19.2 10.6564 19.5468C10.3279 20.2289 9.47695 20.1445 9.08912 20.0122C8.69444 19.8183 8.49368 19.5422 8.26098 19.1521C8.1971 19.0403 8.14919 18.9536 8.1332 18.9468C7.5241 19.3187 6.91723 19.6928 6.30811 20.0647C6.61155 20.6875 7.05868 21.2282 7.6313 21.5795C8.48681 22.0928 9.63662 22.2502 10.8389 21.9742C11.6214 21.746 12.2967 21.2738 12.6503 20.5552C13.1613 19.613 13.0518 18.4723 13.0473 17.2107C13.0587 15.1529 13.0473 13.0951 13.0473 11.0305Z" fill="#323330"/>
</g>
<defs>
<clipPath id="clip0_93_455">
<rect width="24" height="24" fill="white"/>
</clipPath>
</defs>
</svg>
