<svg width="24" height="24" viewBox="0 0 24 24" fill="none" xmlns="http://www.w3.org/2000/svg">
<g clip-path="url(#clip0_93_462)">
<path d="M9.43117 0.000133035C7.53518 0.000133035 5.99991 1.5354 5.99991 3.43139V5.44702H11.1468C11.6148 5.44702 11.9999 6.13214 11.9999 6.60014H3.43126C1.53527 6.60014 0 8.13541 0 10.0314V14.5688C0 16.4648 1.53527 18.0001 3.43126 18.0001H4.84689V14.7844C4.84689 12.8885 6.3728 11.3532 8.26879 11.3532H14.5687C16.4647 11.3532 18 9.82728 18 7.93129V3.43132C18 1.53533 16.4647 6.10352e-05 14.5687 6.10352e-05L9.43117 0.000133035ZM8.56868 1.9314C9.04867 1.9314 9.43117 2.07653 9.43117 2.78452C9.43117 3.49252 9.04867 3.85326 8.56868 3.85326C8.10068 3.85326 7.71555 3.49252 7.71555 2.78452C7.71555 2.07653 8.10068 1.9314 8.56868 1.9314Z" fill="#3C78AA"/>
<path d="M19.1508 6.00006V9.2157C19.1508 11.1117 17.6273 12.647 15.7313 12.647H9.43128C7.53528 12.647 6 14.1705 6 16.0665V20.5665C5.99959 21.4769 6.36089 22.3501 7.0044 22.994C7.64792 23.638 8.52091 23.9999 9.43128 24.0001H14.5687C15.4791 23.9999 16.3521 23.638 16.9956 22.994C17.6391 22.3501 18.0004 21.4769 18 20.5665V18.5509H12.8508C12.3828 18.5509 12 17.8681 12 17.4001H20.5687C21.4791 17.3999 22.3521 17.038 22.9956 16.3941C23.6391 15.7501 24.0004 14.8769 24 13.9665V9.43137C23.9996 7.53649 22.4636 6.00048 20.5687 6.00008L19.1508 6.00006ZM7.58436 11.4165L7.57968 11.4212C7.59405 11.4183 7.60976 11.4193 7.62421 11.4165H7.58436ZM15.4313 20.147C15.8993 20.147 16.2844 20.5077 16.2844 21.2157C16.2837 21.6862 15.9018 22.0671 15.4313 22.0665C14.9513 22.0665 14.5688 21.9237 14.5688 21.2157C14.5688 20.5077 14.9513 20.147 15.4313 20.147Z" fill="#FDD835"/>
</g>
<defs>
<clipPath id="clip0_93_462">
<rect width="24" height="24" fill="white"/>
</clipPath>
</defs>
</svg>
