<svg width="24" height="24" viewBox="0 0 24 24" fill="none" xmlns="http://www.w3.org/2000/svg">
<path d="M12 13.8556C13.0355 13.8556 13.875 13.0161 13.875 11.9806C13.875 10.9451 13.0355 10.1056 12 10.1056C10.9645 10.1056 10.125 10.9451 10.125 11.9806C10.125 13.0161 10.9645 13.8556 12 13.8556Z" fill="#00D8FF"/>
<path d="M12 16.2796C9.74635 16.3341 7.49835 16.0303 5.34 15.3796C4.34297 15.0635 3.41305 14.5656 2.59725 13.9111C2.28595 13.6875 2.0267 13.3992 1.83731 13.0659C1.64791 12.7327 1.53284 12.3625 1.5 11.9806C1.5 10.7408 2.862 9.52583 5.1435 8.73083C7.35955 8.02639 9.67494 7.68498 12 7.71983C14.294 7.68778 16.5784 8.02302 18.7665 8.71283C19.7267 9.01895 20.6251 9.49277 21.42 10.1123C21.726 10.3255 21.9813 10.6034 22.168 10.9262C22.3546 11.2491 22.468 11.609 22.5 11.9806C22.5 13.2691 20.9775 14.5748 18.525 15.3863C16.4084 16.0159 14.2079 16.3171 12 16.2796ZM12 8.61683C9.77559 8.5871 7.56062 8.91166 5.43825 9.57833C3.33825 10.3111 2.397 11.3131 2.397 11.9783C2.397 12.6743 3.40875 13.7686 5.63025 14.5283C7.69505 15.1477 9.84496 15.436 12 15.3826C14.1123 15.4204 16.2179 15.1345 18.2438 14.5351C20.55 13.7708 21.6 12.6751 21.6 11.9806C21.5622 11.7422 21.4753 11.5144 21.3449 11.3113C21.2145 11.1082 21.0435 10.9344 20.8425 10.8008C20.1313 10.2512 19.3288 9.83126 18.4718 9.56033C16.3785 8.90315 14.1937 8.58463 12 8.61683Z" fill="#00D8FF"/>
<path d="M7.7402 21.3323C7.39032 21.3403 7.04457 21.2554 6.7382 21.0863C5.6642 20.4668 5.2922 18.6803 5.74295 16.3065C6.23993 14.0349 7.10105 11.8585 8.29295 9.86179C9.41099 7.85862 10.8423 6.04723 12.5327 4.49629C13.2776 3.81732 14.1368 3.2757 15.0707 2.89654C15.4085 2.73825 15.7769 2.65619 16.1499 2.65619C16.523 2.65619 16.8914 2.73825 17.2292 2.89654C18.3459 3.54004 18.7157 5.51104 18.1944 8.04079C17.6821 10.1892 16.8434 12.2464 15.7074 14.1405C14.6287 16.1201 13.2425 17.9157 11.6004 19.4603C10.8285 20.1659 9.9327 20.7225 8.9582 21.102C8.56806 21.2468 8.15627 21.3247 7.7402 21.3323ZM9.06995 10.3073C7.93302 12.2193 7.10769 14.3001 6.62495 16.4715C6.2102 18.6578 6.60845 19.9725 7.18745 20.307C7.78745 20.6543 9.24395 20.325 11.0124 18.78C12.58 17.3003 13.9031 15.5814 14.9327 13.6875C16.0209 11.8767 16.8255 9.9099 17.3184 7.85554C17.8089 5.47429 17.3852 4.01629 16.7837 3.66979C16.5583 3.58341 16.3173 3.54474 16.0762 3.55623C15.835 3.56772 15.5989 3.62912 15.3827 3.73654C14.5515 4.07955 13.7872 4.56651 13.1252 5.17504C11.5102 6.66063 10.143 8.39474 9.0752 10.3118L9.06995 10.3073Z" fill="#00D8FF"/>
<path d="M16.2575 21.342C15.2413 21.342 13.9505 20.727 12.6065 19.5713C10.8866 18.0062 9.43102 16.1733 8.29629 14.1435C7.11934 12.1743 6.26504 10.0295 5.76579 7.79029C5.54927 6.80516 5.50915 5.78944 5.64729 4.7903C5.67923 4.41965 5.79209 4.06052 5.97791 3.73824C6.16374 3.41596 6.41801 3.13837 6.72279 2.92505C7.83804 2.2793 9.73029 2.94305 11.6615 4.65754C13.267 6.17418 14.6303 7.92807 15.704 9.85804C16.8803 11.7813 17.7435 13.8792 18.2615 16.0733C18.4874 17.0946 18.5222 18.1488 18.3643 19.1828C18.3267 19.5641 18.2071 19.9328 18.0137 20.2635C17.8203 20.5943 17.5577 20.8793 17.2438 21.099C16.9424 21.2661 16.602 21.35 16.2575 21.342ZM9.07254 13.692C10.1611 15.6319 11.5515 17.3861 13.1915 18.8888C14.8783 20.34 16.2163 20.652 16.7915 20.3138C17.3915 19.965 17.834 18.5415 17.378 16.2383C16.8784 14.1435 16.0505 12.141 14.9248 10.305C13.9002 8.45789 12.5988 6.77844 11.066 5.32504C9.24804 3.71105 7.77354 3.3503 7.17279 3.6983C6.98555 3.85046 6.83189 4.03979 6.72152 4.25433C6.61115 4.46888 6.54646 4.70398 6.53154 4.94479C6.41229 5.83586 6.45114 6.74097 6.64629 7.61854C7.12652 9.7599 7.94585 11.8108 9.07329 13.6935L9.07254 13.692Z" fill="#00D8FF"/>
</svg>
