<svg width="296" height="295" viewBox="0 0 296 295" fill="none" xmlns="http://www.w3.org/2000/svg">
<path d="M293.544 143.744L281.18 136.089C281.077 134.886 280.961 133.685 280.832 132.485L291.457 122.581C291.981 122.084 292.371 121.462 292.59 120.773C292.808 120.084 292.849 119.351 292.707 118.642C292.566 117.934 292.247 117.272 291.78 116.72C291.314 116.168 290.715 115.744 290.04 115.486L276.458 110.403C276.122 109.229 275.766 108.061 275.389 106.899L283.864 95.1311C284.289 94.543 284.556 93.856 284.641 93.1354C284.725 92.4148 284.623 91.6847 284.345 91.0145C284.068 90.3442 283.623 89.7563 283.054 89.3066C282.484 88.857 281.809 88.5605 281.093 88.4456L266.777 86.1218C266.219 85.0399 265.643 83.967 265.05 82.9034L271.065 69.694C271.686 68.3519 271.549 66.7861 270.729 65.5683C269.909 64.3505 268.517 63.6298 267.038 63.6795L252.499 64.189C251.753 63.2446 250.987 62.3165 250.2 61.4055L253.543 47.2516C253.708 46.5459 253.69 45.8097 253.491 45.1128C253.292 44.4159 252.919 43.7812 252.406 43.2687C251.894 42.7562 251.259 42.3829 250.562 42.184C249.865 41.985 249.129 41.9671 248.423 42.1319L234.27 45.4746C233.346 44.6986 232.414 43.9322 231.474 43.1757L231.983 28.6367C232.018 27.9093 231.864 27.1852 231.536 26.5348C231.209 25.8844 230.718 25.3298 230.113 24.9247C229.508 24.5196 228.808 24.2777 228.082 24.2227C227.356 24.1676 226.628 24.3012 225.969 24.6105L212.759 30.6374C211.691 30.0533 210.622 29.4693 209.541 28.9101L207.205 14.5823C207.083 13.8696 206.783 13.1992 206.333 12.634C205.882 12.0687 205.295 11.627 204.627 11.3502C203.959 11.0734 203.232 10.9705 202.514 11.0511C201.795 11.1317 201.109 11.3932 200.519 11.8112L188.739 20.2861C187.577 19.9135 186.409 19.5613 185.235 19.2298L180.152 5.64761C179.894 4.97241 179.47 4.37359 178.918 3.90712C178.366 3.44065 177.704 3.12176 176.995 2.98026C176.287 2.83876 175.554 2.87927 174.865 3.098C174.176 3.31672 173.554 3.70653 173.057 4.23098L163.153 14.8681C161.953 14.7331 160.752 14.6171 159.549 14.5202L151.894 2.15575C151.513 1.5391 150.981 1.03005 150.348 0.676998C149.716 0.323944 149.003 0.138611 148.278 0.138611C147.553 0.138611 146.841 0.323944 146.208 0.676998C145.575 1.03005 145.043 1.5391 144.662 2.15575L137.007 14.5202C135.802 14.6196 134.596 14.7438 133.404 14.8681L123.487 4.23098C122.993 3.70004 122.371 3.30438 121.681 3.08165C120.991 2.85892 120.255 2.81654 119.544 2.95854C118.833 3.10053 118.17 3.42219 117.618 3.89288C117.066 4.36357 116.644 4.96765 116.392 5.64761L111.309 19.2298C110.129 19.5653 108.973 19.9257 107.805 20.2861L96.0369 11.8112C95.447 11.3932 94.7608 11.1317 94.0423 11.0511C93.3239 10.9705 92.5967 11.0734 91.9288 11.3502C91.261 11.627 90.6742 12.0687 90.2235 12.634C89.7727 13.1992 89.4727 13.8696 89.3515 14.5823L87.0153 28.9101C85.9334 29.4687 84.8604 30.0446 83.7968 30.6374L70.5874 24.6105C69.9275 24.3087 69.2014 24.1809 68.4781 24.2392C67.7549 24.2975 67.0586 24.5401 66.4556 24.9437C65.8527 25.3474 65.3631 25.8987 65.0335 26.5451C64.704 27.1916 64.5454 27.9116 64.573 28.6367L65.0824 43.1757C64.138 43.9213 63.206 44.6918 62.2865 45.4746L48.1327 42.1319C47.4269 41.9671 46.6907 41.985 45.9938 42.184C45.2969 42.3829 44.6622 42.7562 44.1497 43.2687C43.6372 43.7812 43.2639 44.4159 43.065 45.1128C42.8661 45.8097 42.8481 46.5459 43.0129 47.2516L46.3432 61.4055C45.5728 62.325 44.8023 63.257 44.0568 64.189L29.5177 63.6795C28.7926 63.652 28.0726 63.8105 27.4261 64.1401C26.7797 64.4696 26.2284 64.9592 25.8247 65.5622C25.4211 66.1652 25.1785 66.8614 25.1202 67.5847C25.0619 68.3079 25.1897 69.0341 25.4915 69.694L31.5184 82.9034C30.9252 83.9668 30.3494 85.0397 29.7911 86.1218L15.4757 88.4456C14.763 88.5668 14.0927 88.8669 13.5274 89.3176C12.9622 89.7683 12.5205 90.3551 12.2437 91.023C11.9668 91.6908 11.8639 92.418 11.9445 93.1364C12.0251 93.8549 12.2867 94.5412 12.7046 95.1311L21.1795 106.899C20.8067 108.067 20.4588 109.223 20.1108 110.403L6.52862 115.486C5.85342 115.744 5.2546 116.168 4.78813 116.72C4.32167 117.272 4.00278 117.934 3.86128 118.642C3.71978 119.351 3.76028 120.084 3.97901 120.773C4.19774 121.462 4.58755 122.084 5.112 122.581L15.7367 132.485C15.6016 133.685 15.4857 134.886 15.3887 136.089L3.02434 143.744C2.4018 144.12 1.88692 144.65 1.52954 145.284C1.17216 145.917 0.984375 146.632 0.984375 147.36C0.984375 148.087 1.17216 148.802 1.52954 149.436C1.88692 150.069 2.4018 150.6 3.02434 150.976L15.3887 158.631C15.4882 159.836 15.6124 161.041 15.7367 162.234L5.112 172.151C4.58106 172.645 4.18539 173.267 3.96267 173.957C3.73994 174.647 3.69755 175.383 3.83955 176.094C3.98155 176.805 4.3032 177.468 4.7739 178.02C5.24459 178.572 5.84866 178.994 6.52862 179.246L20.1108 184.329C20.4463 185.509 20.8067 186.677 21.1795 187.833L12.7046 199.601C12.2759 200.189 12.0058 200.877 11.9203 201.6C11.8348 202.322 11.9368 203.055 12.2165 203.726C12.4962 204.398 12.9441 204.986 13.5171 205.435C14.0901 205.883 14.7689 206.176 15.4882 206.286L29.8035 208.61C30.3627 209.691 30.9343 210.76 31.5308 211.829L25.5039 225.038C25.2021 225.698 25.0743 226.424 25.1326 227.147C25.191 227.871 25.4335 228.567 25.8372 229.17C26.2408 229.773 26.7921 230.262 27.4385 230.592C28.085 230.921 28.8051 231.08 29.5301 231.052L44.0568 230.543C44.8148 231.487 45.5728 232.419 46.3557 233.339L43.0253 247.505C42.8595 248.211 42.8768 248.947 43.0756 249.644C43.2743 250.34 43.648 250.975 44.161 251.487C44.674 251.998 45.3093 252.37 46.0067 252.567C46.704 252.765 47.4401 252.78 48.1451 252.612L62.2989 249.282C63.2185 250.065 64.1505 250.823 65.0949 251.569L64.5854 266.108C64.553 266.834 64.7086 267.557 65.0371 268.205C65.3657 268.854 65.8561 269.407 66.4609 269.81C67.0657 270.214 67.7645 270.455 68.4895 270.509C69.2146 270.564 69.9415 270.43 70.5998 270.121L83.8092 264.107C84.8779 264.704 85.9466 265.275 87.0277 265.834L89.3639 280.15C89.4834 280.863 89.7821 281.535 90.2322 282.102C90.6822 282.669 91.2687 283.112 91.9369 283.39C92.605 283.668 93.3328 283.772 94.0521 283.692C94.7714 283.613 95.4586 283.351 96.0494 282.933L107.817 274.458C108.985 274.831 110.141 275.191 111.322 275.527L116.404 289.109C116.654 289.792 117.074 290.398 117.626 290.871C118.178 291.344 118.842 291.667 119.554 291.809C120.267 291.952 121.004 291.908 121.695 291.684C122.386 291.459 123.007 291.06 123.5 290.526L133.416 279.901C134.609 280.038 135.814 280.15 137.02 280.262L144.674 292.626C145.057 293.24 145.59 293.746 146.223 294.097C146.856 294.448 147.567 294.632 148.291 294.632C149.014 294.632 149.726 294.448 150.358 294.097C150.991 293.746 151.524 293.24 151.907 292.626L159.561 280.262C160.767 280.15 161.972 280.038 163.165 279.901L173.069 290.526C173.566 291.05 174.188 291.44 174.877 291.659C175.566 291.878 176.299 291.918 177.008 291.777C177.717 291.635 178.378 291.316 178.93 290.85C179.482 290.383 179.907 289.784 180.165 289.109L185.247 275.527C186.428 275.191 187.596 274.831 188.751 274.458L200.519 282.933C201.107 283.362 201.795 283.632 202.518 283.717C203.241 283.803 203.973 283.701 204.645 283.421C205.316 283.142 205.905 282.694 206.353 282.121C206.801 281.548 207.095 280.869 207.205 280.15L209.541 265.834C210.622 265.275 211.691 264.691 212.759 264.107L225.969 270.121C226.628 270.419 227.352 270.544 228.073 270.485C228.793 270.425 229.487 270.184 230.089 269.782C230.69 269.381 231.18 268.833 231.511 268.19C231.843 267.547 232.005 266.831 231.983 266.108L231.474 251.569C232.418 250.823 233.35 250.065 234.257 249.282L248.411 252.612C249.116 252.776 249.85 252.758 250.546 252.56C251.242 252.362 251.875 251.99 252.387 251.479C252.899 250.968 253.273 250.335 253.473 249.64C253.673 248.945 253.693 248.21 253.531 247.505L250.2 233.339C250.971 232.419 251.741 231.487 252.487 230.543L267.026 231.052C267.753 231.087 268.477 230.933 269.128 230.606C269.778 230.278 270.333 229.788 270.738 229.183C271.143 228.577 271.385 227.878 271.44 227.152C271.495 226.425 271.361 225.697 271.052 225.038L265.038 211.829C265.622 210.76 266.206 209.691 266.765 208.61L281.08 206.286C281.793 206.165 282.463 205.865 283.029 205.414C283.594 204.964 284.036 204.377 284.312 203.709C284.589 203.041 284.692 202.314 284.612 201.596C284.531 200.877 284.269 200.191 283.852 199.601L275.377 187.833L276.445 184.329L290.028 179.246C290.707 178.994 291.312 178.572 291.782 178.02C292.253 177.468 292.575 176.805 292.717 176.094C292.859 175.383 292.816 174.647 292.593 173.957C292.371 173.267 291.975 172.645 291.444 172.151L280.819 162.234C280.944 161.041 281.068 159.836 281.167 158.631L293.532 150.976C294.154 150.6 294.669 150.069 295.027 149.436C295.384 148.802 295.572 148.087 295.572 147.36C295.572 146.632 295.384 145.917 295.027 145.284C294.669 144.65 294.167 144.12 293.544 143.744ZM210.796 246.3C209.671 246.059 208.604 245.599 207.657 244.946C206.709 244.293 205.9 243.46 205.274 242.494C204.011 240.544 203.575 238.171 204.061 235.899C204.301 234.774 204.761 233.707 205.414 232.759C206.067 231.812 206.901 231.003 207.866 230.377C209.817 229.114 212.189 228.678 214.462 229.164C215.587 229.405 216.654 229.866 217.601 230.52C218.548 231.173 219.357 232.007 219.982 232.974C220.607 233.94 221.035 235.02 221.242 236.152C221.45 237.284 221.432 238.446 221.191 239.571C220.949 240.696 220.488 241.763 219.835 242.71C219.181 243.657 218.347 244.466 217.381 245.091C216.414 245.716 215.334 246.144 214.202 246.351C213.07 246.559 211.921 246.541 210.796 246.3ZM206.596 217.893C205.571 217.672 204.512 217.656 203.481 217.845C202.45 218.035 201.466 218.426 200.587 218.996C199.707 219.566 198.949 220.305 198.355 221.169C197.761 222.033 197.344 223.006 197.127 224.031L192.74 244.51C179.195 250.662 164.159 254.079 148.315 254.079C132.648 254.102 117.166 250.691 102.959 244.088L98.572 223.609C98.3551 222.584 97.9377 221.611 97.3438 220.748C96.7499 219.884 95.9911 219.146 95.1112 218.577C94.2312 218.008 93.2474 217.618 92.2163 217.43C91.1852 217.242 90.1271 217.26 89.1029 217.483L71.0223 221.36C67.6627 217.9 64.5407 214.218 61.6776 210.337H149.657C150.652 210.337 151.323 210.163 151.323 209.256V178.128C151.323 177.221 150.664 177.047 149.657 177.047H123.922V157.313H151.758C154.293 157.313 165.34 158.034 168.869 172.151C169.975 176.488 172.398 190.617 174.063 195.14C175.716 200.21 182.451 210.337 189.634 210.337H233.474C234.008 210.33 234.54 210.276 235.065 210.176C232.025 214.306 228.695 218.213 225.099 221.869L206.596 217.893ZM84.9028 245.877C83.7776 246.119 82.6159 246.136 81.4839 245.929C80.3519 245.721 79.2719 245.293 78.3055 244.668C77.3391 244.043 76.5053 243.234 75.8516 242.287C75.1978 241.34 74.7371 240.274 74.4955 239.148C74.254 238.023 74.2365 236.861 74.4439 235.729C74.6514 234.598 75.0798 233.518 75.7046 232.551C76.3295 231.585 77.1385 230.751 78.0856 230.097C79.0327 229.443 80.0993 228.983 81.2245 228.741C83.4969 228.253 85.87 228.688 87.8217 229.95C89.7735 231.212 91.144 233.198 91.6317 235.47C92.1195 237.742 91.6846 240.116 90.4227 242.067C89.1607 244.019 87.1752 245.39 84.9028 245.877ZM51.5251 110.528C52.035 111.585 52.3273 112.733 52.3846 113.906C52.442 115.078 52.2632 116.25 51.8588 117.352C51.4545 118.454 50.8328 119.463 50.0308 120.32C49.2288 121.177 48.2628 121.864 47.1901 122.34C46.1175 122.817 44.96 123.073 43.7865 123.093C42.613 123.113 41.4473 122.898 40.3588 122.459C39.2702 122.02 38.2809 121.367 37.4496 120.538C36.6184 119.71 35.9621 118.723 35.5197 117.636C34.662 115.528 34.6582 113.169 35.5091 111.058C36.36 108.947 37.9988 107.251 40.0786 106.327C42.1585 105.403 44.5161 105.325 46.6525 106.109C48.7889 106.893 50.5364 108.478 51.5251 110.528ZM41.2732 134.846L60.1118 126.471C61.0702 126.045 61.9353 125.435 62.6577 124.675C63.38 123.915 63.9455 123.02 64.3218 122.042C64.698 121.063 64.8776 120.02 64.8504 118.972C64.8231 117.923 64.5895 116.891 64.1629 115.933L60.2858 107.16H75.5456V175.928H44.7651C40.9692 162.582 39.7877 148.628 41.2856 134.834L41.2732 134.846ZM123.935 128.173V107.906H160.27C162.146 107.906 173.516 110.08 173.516 118.58C173.516 125.638 164.793 128.173 157.623 128.173H123.935ZM255.979 146.415C255.979 149.099 255.879 151.771 255.681 154.406H244.633C243.527 154.406 243.08 155.126 243.08 156.22V161.29C243.08 173.232 236.345 175.829 230.442 176.488C224.826 177.121 218.6 174.139 217.829 170.697C214.511 152.057 208.994 148.068 200.271 141.196C211.094 134.324 222.353 124.184 222.353 110.615C222.353 95.9636 212.3 86.7307 205.453 82.195C195.847 75.8575 185.21 74.59 182.339 74.59H68.1021C83.8899 56.9366 105.062 44.9858 128.333 40.591L141.804 54.72C142.525 55.4794 143.39 56.0888 144.348 56.5131C145.306 56.9374 146.338 57.1683 147.385 57.1926C148.432 57.2168 149.474 57.0339 150.451 56.6544C151.427 56.2748 152.319 55.7061 153.075 54.9809L168.136 40.5662C183.492 43.4463 198.039 49.6329 210.765 58.6968C223.492 67.7607 234.095 79.4848 241.837 93.0558L231.523 116.356C230.669 118.291 230.615 120.486 231.374 122.461C232.133 124.435 233.643 126.029 235.574 126.893L255.432 135.716C255.78 139.245 255.954 142.799 255.954 146.415H255.979ZM141.816 28.587C142.648 27.7939 143.627 27.1723 144.699 26.7578C145.771 26.3432 146.913 26.1438 148.062 26.171C149.211 26.1981 150.343 26.4512 151.394 26.9158C152.445 27.3805 153.394 28.0476 154.187 28.879C154.98 29.7104 155.602 30.69 156.016 31.7616C156.431 32.8333 156.63 33.9761 156.603 35.1248C156.576 36.2735 156.323 37.4056 155.858 38.4565C155.393 39.5074 154.726 40.4565 153.895 41.2496C152.193 42.7179 149.992 43.4759 147.747 43.3668C145.502 43.2577 143.384 42.2897 141.833 40.6633C140.281 39.0368 139.414 36.8762 139.411 34.6284C139.408 32.3807 140.269 30.2177 141.816 28.587ZM244.174 110.95C246.125 106.526 251.294 104.538 255.705 106.501C257.291 107.201 258.634 108.356 259.564 109.819C260.493 111.282 260.968 112.988 260.927 114.721C260.886 116.454 260.333 118.136 259.336 119.555C258.339 120.973 256.943 122.063 255.327 122.688C253.71 123.313 251.944 123.444 250.252 123.065C248.561 122.686 247.02 121.813 245.824 120.558C244.629 119.302 243.833 117.72 243.537 116.012C243.241 114.304 243.458 112.547 244.161 110.962L244.174 110.95Z" fill="white"/>
</svg>
