<svg width="25" height="24" viewBox="0 0 25 24" fill="none" xmlns="http://www.w3.org/2000/svg">
<g clip-path="url(#clip0_93_467)">
<path d="M1.1961 8.44553C1.1961 8.44553 0.628541 8.03472 1.31048 7.48685L2.89823 6.06297C2.89823 6.06297 3.3531 5.58316 3.83367 6.00147L18.4915 17.1255V22.4598C18.4915 22.4598 18.4842 23.2976 17.412 23.2053L1.1961 8.44553Z" fill="#2489CA"/>
<path d="M4.97511 11.8835L1.19643 15.3266C1.19643 15.3266 0.808301 15.6159 1.19643 16.1338L2.95068 17.7326C2.95068 17.7326 3.3673 18.1817 3.98343 17.6711L7.98824 14.6265L4.97511 11.8835Z" fill="#1070B3"/>
<path d="M11.608 11.9121L18.5367 6.60861L18.4918 1.30293C18.4918 1.30293 18.196 0.144925 17.2088 0.748113L7.98828 9.15955L11.608 11.9121Z" fill="#0877B9"/>
<path d="M17.4119 23.2119C17.8141 23.625 18.302 23.4894 18.302 23.4894L23.7014 20.8228C24.3927 20.3503 24.296 19.7644 24.296 19.7644V3.83718C24.296 3.13686 23.5812 2.89518 23.5812 2.89518L18.9011 0.633738C17.8786 0.000175625 17.2085 0.748113 17.2085 0.748113C17.2085 0.748113 18.0697 0.126176 18.4916 1.30311V22.3625C18.4916 22.5075 18.4608 22.6494 18.3993 22.7777C18.2763 23.0274 18.0082 23.2595 17.3673 23.1622L17.4119 23.2119Z" fill="#3C99D4"/>
</g>
<defs>
<clipPath id="clip0_93_467">
<rect width="24" height="24" fill="white" transform="translate(0.510742)"/>
</clipPath>
</defs>
</svg>
